<svg xmlns="http://www.w3.org/2000/svg" xml:space="preserve" width="405.97" height="265.48" viewBox="0 0 107.41 70.24">
    <path d="m8.73 29.69 3.04 9.59.28 12.86-.56 11.83.65 4.35 2.25 1.36h2.1l2.25-.56 1.96-1.55.61-1.63-1.4-4.45 7.76 3.37 7.72-2.06-.65 3.5 1.35 2.07 2.67 1.3 2.57.15 2.15-.94.75-1.63.42-29.38 2.48-9.72L29.26 9.2l-3.6.05-5.6 1.5z" style="fill:#fff;fill-opacity:1;stroke-width:.264583"/>
    <path d="M27.86 9.43q-47.28-18.85 0 0" style="fill:#fefefe"/>
    <path d="M14.64 70.13c-1-.21-2.1-.71-2.42-1.12a4.3 4.3 0 0 1-.6-2.46c0-1.05-.04-1.12-1.42-3.33-3.05-4.84-4.03-8.6-3.23-12.38.27-1.3.6-2.23 1.64-4.66 1.47-3.43 2.15-5.64 2.16-6.95 0-.27-.06-.33-.32-.33-.3 0-.3-.02-.23-.47.08-.5-.07-.74-.34-.53-.08.06-.27.15-.43.19-.27.06-.28.05-.2-.53.05-.32.05-.64.01-.7-.04-.07-.27-.04-.57.06-.27.1-.53.14-.56.1-.03-.02 0-.3.07-.6.15-.57.2-1.28.07-1.28l-.6.14c-.87.2-.94.12-.59-.75.24-.58.27-.78.16-.92q-.13-.16-.3-.17c-.33 0-.28-.25.31-1.6.33-.74.6-1.43.6-1.51 0-.1-.13-.2-.3-.23-.4-.1-.38-.22.2-.67.25-.22.47-.46.47-.54s-.18-.22-.4-.3c-.39-.13-.39-.13-.08-.38a7 7 0 0 0 1.33-1.32c0-.06-.24-.12-.54-.12-.9 0-1.24-.3-.63-.57.42-.2.5-.6.13-.84-.29-.18-.29-.18-.03-.54.26-.35.26-.35-.03-.67a9 9 0 0 0-1.2-.92c-1.15-.77-1.55-1.13-1.83-1.68a10 10 0 0 1-.66-2.47 4 4 0 0 0-.85-1.9A22 22 0 0 1 .08 8.17C-.09 6.83 0 4.6.26 3.79A3.5 3.5 0 0 1 1.82 1.9c.6-.3 2-.33 3.07-.06 2.4.62 6.1 2.33 9.32 4.32a10 10 0 0 0 2.12 1.1c.17 0 .5.15.71.3.33.27.43.29.58.16.24-.2.56.1 1.5 1.37.74 1.03.83 1.07 1.72.75 3.17-1.11 8.6-1.35 12.16-.52.6.14 1.4.38 1.8.54.52.22.77.27.94.18.12-.07.5-.56.84-1.1.67-1.04 1.27-1.6 1.4-1.27.1.25.22.22.63-.13.2-.16.42-.27.5-.24.18.07.93-.28 1.67-.78.26-.18 1.32-.8 2.34-1.4a34 34 0 0 1 7.78-3.34 6 6 0 0 1 2.58-.01 4 4 0 0 1 1.68 1.75c.27.6.3.76.28 3 0 2.23-.03 2.44-.39 3.9a21 21 0 0 1-2.8 6.56 5.5 5.5 0 0 0-.99 2.33c-.6 2.8-.73 2.98-2.98 4.34a3 3 0 0 0-.82.64c-.04.1.04.33.18.5.23.3.24.34.03.49a1 1 0 0 1-.3.15c-.25 0-.06.38.33.68.41.32.42.35.21.5-.13.1-.44.16-.8.13q-.56-.04-.57.1c0 .14.81.93 1.33 1.3.3.2.3.2-.06.5-.36.28-.36.28.11.8.46.5.46.52.21.62-.14.05-.26.17-.26.26 0 .1.27.8.6 1.55.34.75.61 1.4.61 1.45s-.16.12-.36.16c-.43.08-.45.23-.12.94.43.95.25 1.2-.62.89-.78-.28-.86-.12-.5 1 .1.35.16.67.12.7-.04.04-.27-.01-.52-.11-.68-.3-.7-.27-.6.53.07.72.07.72-.38.6-.52-.15-.74-.02-.56.33.16.3.06.53-.23.53-.35 0-.4.3-.24 1.26.2 1.2.81 2.94 1.9 5.4.5 1.18 1.16 2.76 1.46 3.52 1.22 3.18 1.15 6.03-.25 9.57a28 28 0 0 1-2.13 4.26c-1.55 2.53-1.45 2.3-1.45 3.42 0 1.96-.56 2.92-2.03 3.5-.6.25-.9.29-2.22.28a5.7 5.7 0 0 1-3.6-.92c-2.08-1.25-2.7-2.67-2.14-4.72.22-.8.17-1.08-.22-1.07-.32 0-2.22.6-4.04 1.27-.67.24-1.38.5-1.58.55-.96.3-2.34.03-5.43-1.04-1.2-.43-1.6-.52-1.79-.42-.28.15-.28.1-.03.8.66 1.9-.25 3.64-2.5 4.82-1.49.78-3 1.04-4.39.75zm1.78-.84c.03-.1-.05-.55-.2-1-.28-.93-.46-2.47-.28-2.47.06 0 .18.24.26.54.28 1.05 1.03 2.85 1.18 2.85.27 0 1.2-.44 1.38-.65.2-.25.1-1.91-.19-2.78a2 2 0 0 1-.13-.64c.2-.2 1.06 1.95 1.06 2.6 0 .2.04.38.1.38.34-.01 1.35-1.63 1.35-2.2 0-.76-.94-3.1-1.3-3.2-.12-.04-.4-.16-.63-.27-.62-.3-3.22-.3-4.13.02a7 7 0 0 0-2.2 1.2c-.4.32-.62.43-.78.37-.19-.07-.18-.02.08.4.25.4.3.66.36 1.94.05 1.1.11 1.54.27 1.79.28.4 1.2 1.08 1.32.95.05-.05 0-.34-.1-.64-.25-.7-.37-2.3-.18-2.3.08 0 .14.12.14.28 0 .55.7 2.36 1.06 2.78.24.28 1.46.3 1.56.05m24.7 0c.27-.22.9-1.62 1.1-2.48.15-.7.15-.7.24-.24.08.4-.1 1.56-.35 2.19-.12.29.25.28.74-.02.71-.43.9-.92.97-2.52.04-.78.12-1.52.18-1.64.1-.17.03-.3-.3-.6a6.6 6.6 0 0 0-2.63-1.44c-1.4-.45-3.05-.5-3.9-.13l-.83.35c-.25.1-.4.35-.72 1.14-.56 1.45-.6 2.14-.17 2.98.36.67.88 1.2 1.02 1.03.05-.05.15-.4.23-.75.16-.75.72-2.07.88-2.07.13 0 .13.04-.08.9-.19.78-.24 2.34-.08 2.58.1.15 1.08.64 1.3.64.15 0 .92-1.86 1.15-2.76.07-.28.16-.51.2-.51.17 0-.07 1.92-.3 2.53-.2.5-.24.69-.13.82.18.2 1.2.2 1.47 0zm-11.75-5.84c.52-.56 1-1.03 1.05-1.03s.11.14.11.3c0 .17.05.3.11.3.12 0 .67-.42 1.35-1.05.31-.3.43-.35.46-.21.1.42.4.2 2.45-1.75.7-.56 1.35-1.22 1.82-1.86.47-.63 1.06-1.35 1.44-1.78a34 34 0 0 0 3.87-5.63c.4-.9.61-1.8.64-2.54.01-.45 0-.85-.04-.88-.12-.12-.52.2-.8.62-.3.43-1.7 1.63-2.5 2.14-.58.37-1.6.77-1.72.67-.04-.04.1-.56.3-1.14.2-.6.41-1.43.5-1.86l.23-1.45c.06-.37.1-.7.08-.71s-.2.05-.4.15c-.48.25-.5.24-.5-.05 0-.68 1.51-2.64 2.55-3.65s2.05-1.68 2.9-2.9c.1-.21.1-.23-.17-.13-.17.07-.7.3-1.18.55-.92.46-3.46 1.28-3.94 1.28a1 1 0 0 0-.57.27c-.6.56-4.16 3.25-4.32 3.25-.05 0-.37.24-.73.54a6.64 6.64 0 0 1-8.88.09 19 19 0 0 0-1.57-1.15c-.96-.62-1.2-.8-2.85-2.08-1.02-.8-1.14-.86-2.67-1.3-.88-.25-2.06-.67-2.6-.93a20 20 0 0 0-1.3-.57c-.25-.07-.27-.06-.17.14.07.13.77.83 1.56 1.56 2.9 2.68 3.92 4 3.92 5.05 0 .23 0 .23-.36.02-.2-.11-.4-.18-.43-.14-.15.15.34 2.86.73 4.07.22.68.38 1.24.36 1.24-.08 0-1.7-.9-2.06-1.13-.2-.13-.92-.8-1.6-1.45-1.42-1.4-1.43-1.4-1.35.2.05.89.12 1.16.57 2.09a18 18 0 0 0 2.98 4.54c1.73 2.86 2.68 3.6 4.77 5.36.63.53 1.27 1.13 1.47 1.28.33.25.37.26.48.07.1-.2.22-.12.93.54.81.77 1.07.87 1.1.44l.04-.36c0-.06.55.45 1.21 1.13 1.42 1.48 1.23 1.49 2.73-.16m.5-18.23c1.16-.42 1.92-1.03 3.06-2.46 1.11-1.4 1.36-1.61 1.36-1.13 0 .17.03.3.07.3.03 0 .38-.2.76-.46.94-.64 2.14-1.18 3.7-1.68 1.44-.47 1.64-.61 2.47-1.78.5-.72.5-.72.58-.37l.11.47c.04.14 1.25-1.08 1.52-1.53a13 13 0 0 0 1.86-5.62c.06-.74 1.65-.32.8-1-.65-.53-3.1-1.74-1.96-1.88 1.34-.16.64-.47-.09-1.06-.36-.3-.72-.6-.79-.68a2.6 2.6 0 0 0-1.36-.66c-.4 0-1.73.47-1.73.6 0 .05.17.2.37.35s.36.32.36.39c0 .22-.9.5-1.9.6-1.2.12-1.5.2-1.5.44q-.02.16-.2.17c-.1 0-.33.1-.47.25-.15.14-.5.28-.76.32-.5.07-.5.06-1.7-1.15a10 10 0 0 0-1.46-1.3c-.14-.04-.26-.12-.26-.16 0-.15-.72-.53-.84-.45q-.12.05-.13-.08c0-.1-.3-.34-.64-.57a4 4 0 0 1-1.14-1.15c-1.3-1.92-1.6-3.44-1.39-7 .08-1.22.2-2.61.27-3.08.2-1.3.1-2.67-.24-3.42-.24-.53-.35-.63-.7-.7-.53-.1-.7.04-1.08.89-.4.87-.4 1.86-.07 4.42.28 2.06.33 3.63.14 5l-.19 1.45c-.08.7-.6 1.82-1.22 2.57-.44.53-1.68 1.57-2.23 1.86-.46.24-1.28.93-2.34 1.98-1.16 1.13-1.22 1.13-2.62.27-.8-.5-.98-.56-1.6-.56-.78 0-1.92-.4-1.92-.66 0-.1.16-.22.36-.3.5-.21.46-.34-.15-.6-1.13-.48-2.16-.4-2.54.22-.08.14-.23.25-.3.25-.1 0-.3.15-.5.33-.18.19-.44.4-.57.46-.26.14-.4.55-.19.55.08 0 .33.08.58.18.42.18.43.19.21.42-.12.14-.45.37-.74.5-.29.15-.53.3-.53.36s-.3.27-.67.48c-.68.39-.68.39-.35.55.18.1.45.17.6.17.31 0 .42.36.42 1.35 0 .92.88 3.27 1.73 4.59.32.5 1.42 1.7 1.56 1.7.06 0 .1-.16.1-.36 0-.5.15-.46.63.19.85 1.15 1.04 1.29 2.32 1.68.38.12.73.26.76.32s.17.1.3.1.6.18 1.05.38c.93.42.86.38 1.75 1 .76.52.86.55.83.18v-.38c.02-.2.48.3 1.22 1.26 1.17 1.53 2.15 2.32 3.48 2.78.94.34 2.67.29 3.73-.1zM26 44.18a4.5 4.5 0 0 1-2.88-3.04c-.19-.6-.4-1-.76-1.4a18 18 0 0 1-2.09-2.6 24 24 0 0 1-2.23-4.35c-.4-1.08-.4-1.08-.8-.6-.4.46-.4.46-.4.08 0-1.17 1.18-1.78 2.04-1.06q.75.61-.05.47c-.5-.1-.52-.04-.12.87a8 8 0 0 0 1.86 2.6 4.8 4.8 0 0 0 3.84 1.4c1.18-.08 2.58-.42 3.24-1.4.2-.27.16-.23.94.55 1.03 1.03 1.82.82 3.34.83 1.16 0 1.66-.17 2.92-1.03 1.15-.8 2.54-3.52 2.43-3.82-.06-.14-.14-.15-.39-.05-.4.15-.42.15-.42-.07 0-.46 1.27-.84 1.83-.54.32.17.6.75.6 1.23 0 .38-.02.4-.18.16-.29-.4-.43-.54-.53-.54-.06 0-.33.56-.62 1.24a20 20 0 0 1-3.8 6.22c-.73.8-.9 1.08-.98 1.5a4.65 4.65 0 0 1-4.62 3.6 4.4 4.4 0 0 1-2.17-.25m.32-11.41c-2.33-.63-3.82-2.62-3.14-4.21.47-1.1 1.83-1.66 4.26-1.75 1.72-.07 2.76.1 3.73.58 1.04.52 1.42 1.09 1.42 2.08 0 2.3-3.37 4.08-6.27 3.3m-1.69-3.8c.1-.47.7-.78 2.2-1.17 1.1-.3 1.1-.3.3-.3-.92 0-2.1.27-2.54.6q-.5.34-.3 1.06c.1.37.25.28.34-.2zm-3.07-4.01c.13-.14.24-.32.23-.4q0-.16-.07 0c-.04.1-.24.28-.45.4q-.38.24-.17.24c.12 0 .33-.11.46-.24m13.1.15c-.1-.03-.34-.2-.54-.38-.3-.3-.33-.3-.2-.05.15.3.46.5.73.5q.26.02 0-.07zm.41-2.16c.38-.4.16-1.03-.36-1.03-.56 0-.74.7-.27 1.03.33.23.4.23.63 0M20.2 22.7c.2-.42-.04-.8-.45-.76-.37.04-.55.34-.45.74.11.45.7.46.9.02m3.36-2.67c.55-.42.97-1.63.86-2.46q-.28-2.05-2-2.01c-.5 0-.83.1-1.22.33-.64.37-1.58 1.26-1.58 1.5 0 .08.18.24.4.35.63.33.71.42.55.62-.12.15.01.34.75 1.07.8.8.96.9 1.37.9q.47 0 .87-.3m10.12-.1q1.27-1.11 1.16-1.5c-.06-.22.04-.33.56-.63.63-.35.63-.35 0-.98-1.04-1.04-2.24-1.51-3.04-1.18-1.14.47-1.62 2.35-.94 3.68.17.33.38.67.47.74.42.34 1.33.28 1.8-.13" style="fill:#fde7d4"/>
    <path d="M14.22 70c-1.92-.46-2.6-1.41-2.6-3.61 0-.98 0-.94-1.54-3.4-3-4.8-3.93-8.56-3.04-12.41.22-.97.7-2.3 1.67-4.61 1.31-3.16 2-5.27 2.07-6.46.04-.5.01-.55-.23-.6-.23-.02-.27-.1-.27-.56 0-.6-.1-.73-.44-.48-.46.35-.6.24-.55-.5.05-.67.04-.7-.24-.6-.85.23-.98.24-.9 0 .16-.54.27-1.38.2-1.51-.08-.12-.24-.12-.73 0-.34.08-.66.1-.7.07-.05-.05.01-.34.13-.65.4-1.03.4-1.2-.02-1.3-.37-.07-.37-.07.18-1.37.71-1.7.75-1.84.42-1.92-.36-.1-.33-.18.26-.77.55-.56.56-.53-.22-.8-.23-.07-.22-.08.07-.27a6 6 0 0 0 1.45-1.46q.02-.15-.6-.07-.62.1-.8-.07c-.16-.14-.13-.2.27-.57.45-.41.45-.41.1-.7-.36-.28-.36-.28-.13-.53.37-.41.1-.76-1.3-1.7-1.72-1.15-1.9-1.46-2.38-3.82a4.7 4.7 0 0 0-.99-2.3C1.2 13.8-.16 9.26.01 5.8.1 4.12.33 3.38 1.05 2.6c.7-.75 1.12-.93 2.18-.93 2.45 0 6.44 1.7 11.64 4.95.8.5 1.33.76 1.48.72q.23-.05.7.3c.4.32.45.34.6.15.07-.1.2-.16.26-.12.08.05.54.62 1.04 1.28.9 1.2.9 1.2 1.73.96a22 22 0 0 1 4.4-.9q5.58-.59 9.67.86c1.04.37 1.03.38 1.8-.8.28-.43.68-.95.88-1.14.35-.34.4-.35.54-.14s.18.2.56-.13c.23-.2.51-.33.64-.3.12 0 .64-.23 1.16-.54 5-3.05 8.42-4.63 11-5.08 3.26-.57 4.65 1.64 4.05 6.48a22 22 0 0 1-3.24 8.87 5 5 0 0 0-.98 2.42c-.45 2.32-.65 2.63-2.46 3.82-1.26.82-1.48 1.12-1.1 1.52.2.24.2.25-.12.49-.3.22-.32.26-.15.5.1.17.33.36.51.44.33.15.33.16.1.33-.18.13-.42.16-.82.12-.32-.04-.6-.01-.65.05-.07.12.5.72 1.2 1.25.5.38.5.5-.05.65-.35.1-.35.1.15.68s.5.68.07.84c-.05.02.2.7.56 1.55.36.83.63 1.55.6 1.6s-.19.1-.35.1c-.37 0-.38.25-.05 1.08.13.34.24.68.24.75q0 .2-1.24-.1c-.3-.06-.34-.03-.33.22 0 .16.08.58.17.94.2.7.21.7-.76.42-.28-.08-.29-.06-.25.6.05.75.04.75-.45.56-.4-.15-.54 0-.45.57.06.38.04.4-.25.4-.18 0-.32.08-.33.16-.1 1.2.64 3.5 2.43 7.53 1.66 3.74 2.1 5.69 1.84 8a15 15 0 0 1-1 3.92 34 34 0 0 1-3.3 6.18c-.28.44-.32.63-.32 1.5 0 1.5-.27 2.3-.98 2.95-.8.73-1.73 1-3.39.98-.98 0-1.45-.07-2.06-.28-1.58-.54-3.15-1.84-3.57-2.95-.3-.76-.2-1.72.27-3.3.2-.67.43-1.55.51-1.95.34-1.75.8-2.86 1.43-3.54.2-.21.44-.5.54-.66a38 38 0 0 0 4.45-6.08 7.5 7.5 0 0 0 .98-3.31c0-.96-.2-1.11-.7-.51-1.1 1.35-3.05 2.8-4.19 3.14-.3.09-.34.07-.26-.1a17 17 0 0 0 1.14-4.43c.1-.66 0-.8-.42-.52-.46.3-.55.24-.36-.3.36-1.03.9-1.7 3.22-4 2.42-2.4 3.8-3.95 3.68-4.14q-.05-.1.1-.07.13.02.12-.12 0-.13.08-.15c.1 0 .48-.78.37-.8q-.04-.02.12-.22.17-.22.47-.13c.3.07.3.07.23-.84-.05-.57-.04-.94.04-1 .07-.03.4.1.7.3.75.48.83.48.54-.02-.14-.22-.37-.77-.58-1.18-1.18-2.24 1.01.28.2-1.66-.9-2.1-4.62-2.87-2.78-3.22.28-.06.57-.15.62-.2.1-.1-.9-.95-2.14-1.85-.75-.55-1.09-.57-2.1-.14-.84.35-.95.55-.44.8q.85.38-.45.72a7 7 0 0 1-1.4.2c-.5.02-.74.1-1.33.5-1.02.67-1.27.7-1.9.27-.29-.2-.9-.75-1.35-1.22a9 9 0 0 0-2.49-1.82 8 8 0 0 1-1.98-2.14 10 10 0 0 1-.6-1.63c-.25-.9-.29-1.3-.29-3.27 0-1.47.08-2.88.23-4.05.26-2.1.22-2.9-.23-3.87-.32-.7-.32-.7-.84-.7-.6 0-.78.17-1.15.98-.32.7-.33 2.28-.04 3.82.14.78.2 1.76.2 3.5.01 2.69-.15 3.79-.75 5.04a8.4 8.4 0 0 1-2.78 2.79c-.48.3-1.43 1.07-2.1 1.73a7 7 0 0 1-1.45 1.18c-.35 0-.8-.2-1.5-.66-.5-.34-.8-.44-1.42-.5-.9-.08-1.93-.38-1.93-.55 0-.06.16-.2.36-.32s.37-.25.37-.3c0-.1-.82-.48-1.68-.78-.52-.18-.52-.18-1.4.46-1.2.87-2.02 1.6-2.02 1.77 0 .09.14.16.3.16.43 0 .94.22.85.36-.1.17-2.18 1.56-2.5 1.69-.2.07-.39.38-.66 1.05-.22.53-.37.97-.36.99s.23-.05.48-.15.44-.14.44-.07c0 .06-.22.6-.49 1.22-.26.6-.48 1.15-.48 1.22 0 .06.2 0 .45-.13.78-.41.83-.37.76.67-.04.7-.02.9.1.85l.3-.13q.15-.05.5.7c.26.63.81 1.38 2.23 3.05.04.06 1.02 1 2.16 2.12 2.18 2.1 2.94 3.08 3.05 3.93.06.48.06.48-.25.27q-.61-.37-.5.28l.24 1.6a15 15 0 0 0 .9 3.24 8.6 8.6 0 0 1-3.42-2.36 8 8 0 0 0-1.52-1.32c-.05.05-.09.6-.09 1.2 0 1.04.04 1.19.48 2.15.94 2.05 1.7 3.12 4.58 6.54.85 1 1.62 1.98 1.71 2.16.2.38.33.8.8 2.58.2.7.52 1.75.72 2.35.81 2.3.36 3.58-1.79 5a7 7 0 0 1-5.29.96m2.28-.62c.04-.04 0-.32-.1-.63-.43-1.38-.68-3.03-.43-2.88.05.04.14.24.18.46.04.2.3.98.58 1.7.56 1.46.48 1.42 1.55.89.55-.27.55-.27.6-1.25a4 4 0 0 0-.23-1.73 2 2 0 0 1-.2-.82c.13-.12.78 1.44.94 2.22.08.43.2.78.24.78.15 0 .83-.84 1.1-1.36.35-.7.25-1.45-.36-2.9-.44-1.02-.53-1.15-.9-1.25a3 3 0 0 1-.58-.24c-.27-.18-2.66-.23-3.4-.08-.9.19-2.1.77-2.8 1.35q-.57.48-.77.4c-.17-.06-.15.04.1.52.3.53.32.73.32 1.85 0 1.5.16 1.92.95 2.44.3.2.6.36.66.36.12 0 .11-.05-.2-1.27-.2-.8-.26-1.81-.09-1.7.06.03.14.29.18.58.1.62.68 2.05 1 2.4.16.18.36.24.9.24.38 0 .72-.04.76-.08m24.75-.15a10 10 0 0 0 1.04-2.5c.01-.22.02-.23.13-.04.1.15.06.44-.07.97-.38 1.48-.38 1.48 0 1.38 1.03-.26 1.4-.98 1.52-2.92.05-.8.12-1.54.17-1.65.1-.23-.63-.9-1.55-1.43a7 7 0 0 0-3.6-.86 4.3 4.3 0 0 0-2.1.32c-.76.3-.76.3-1.2 1.5-.58 1.55-.6 2.27-.1 3.05.2.3.5.67.7.82.34.27.34.27.47-.4.18-.85.64-2.1.86-2.27.2-.18.2-.07-.02.68-.1.33-.22 1.08-.26 1.66-.07 1.05-.07 1.05.52 1.34 1.07.54 1.06.54 1.38-.24.16-.38.44-1.16.63-1.73.34-1.03.34-1.03.3-.17a8 8 0 0 1-.32 1.62c-.14.42-.23.84-.2.93.1.27 1.44.22 1.7-.06M21.53 25c.15-.1.27-.28.27-.4 0-.18-.02-.18-.15-.01-.09.1-.29.28-.45.4q-.3.19-.12.2a1 1 0 0 0 .45-.2zm13.06 0c-.2-.1-.43-.28-.5-.38q-.15-.18-.24-.13c-.13.13.54.7.83.7.25 0 .24-.02-.09-.2m-14.49-2.1c.28-.27.3-.4.12-.73-.14-.26-.6-.31-.82-.1-.22.23-.18.8.07.95.3.17.36.16.63-.12m15.01.1c.08-.08.15-.3.15-.46q-.01-.59-.55-.6c-.56 0-.74.69-.27 1.02.32.22.48.23.67.04m-11.66-2.8c.53-.35.93-1.2 1-2.05.07-1-.05-1.45-.53-2.01-.76-.88-1.98-.87-3.2.03-.6.44-1.22 1.09-1.22 1.27 0 .05.22.19.48.3q.95.44.54.65c-.17.1-.08.24.63 1 1.11 1.17 1.55 1.33 2.3.82zm10.8-.72c.95-.91 1-1 .76-1.1-.26-.1-.26-.1.05-.33.17-.13.48-.32.7-.4.37-.17.37-.17-.26-.8-1.88-1.88-3.5-1.87-4.3.05-.48 1.13 0 2.9.9 3.4.7.38 1.03.25 2.14-.82zm-25.42-.8c.63-.47.62-1.25-.03-1.81-1.07-.94-1-.83-1-1.77.01-.48.06-1.1.11-1.4.1-.5.1-.5-.74-1.38A7.4 7.4 0 0 1 5.13 9c-.3-.8-.66-1.7-.79-2a10 10 0 0 1-.73-2c0-.68 2.9.7 4.82 2.3 1.88 1.59 2.98 3.26 4.21 6.4 1.02 2.6 1.17 2.76 1.01.97a11.4 11.4 0 0 0-4.4-8.04c-1.8-1.43-3.88-2.43-5.4-2.6-.9-.1-1.18.08-1.5.9-.33.92-.35 3.68-.02 4.86l.33 1.27c.07.27.2.57.27.67.1.1.23.37.32.6a7 7 0 0 0 1.1 1.89c.12.12.23.29.23.38q.01.15.1.16c.14 0 .63.43.63.54 0 .05.27.39.6.75.45.49.7.93 1.05 1.8.45 1.18.45 1.18 1 1.1.31-.03.7-.17.87-.3m39.26.24c.08-.05.28-.45.43-.88.34-.98.7-1.6 1.3-2.23a12 12 0 0 0 3.5-8.7c0-1.63-.14-2.27-.56-2.8-.22-.28-.34-.32-.94-.32-.37 0-.68.05-.68.12s-.12.12-.27.12c-.49 0-2.64.8-2.64.98q-.02.1-.15.1c-.32 0-2.1 1.3-3 2.19-.85.84-2.3 2.8-2.1 2.8q.09 0-.04.09c-.2.13-.76 1.56-.96 2.49-.19.9-.24 3-.06 3 .06 0 .26-.43.44-.95 1.4-3.9 2.17-5.3 3.84-6.92 1.51-1.47 4.03-2.98 5.22-3.14.46-.07.48-.06.42.22-.03.16-.3.84-.57 1.5-.28.67-.7 1.74-.93 2.37a8 8 0 0 1-2.07 3.42c-.64.67-.88 1-.84 1.15.28.9.45 1.8.38 2.07-.04.17-.42.63-.85 1.03-.86.8-.99 1.2-.59 1.77.34.48 1.31.78 1.72.52M27.14 46.57a7 7 0 0 1-4.04-2.06c-.82-.83-1.73-2.1-1.53-2.1.14 0 .1-.4-.08-.87s.3-.06.92.8a8 8 0 0 0 2.98 2.7 4 4 0 0 0 2.23.5c1.12.05 1.38.02 2.15-.25 1.4-.5 2.22-1.18 3.66-3.03.35-.45.7-.81.75-.81.1 0 .02.7-.08.83-.03.03.01.15.08.27q.1.21.02.23c-.06 0-.4.39-.76.86a10 10 0 0 1-1.3 1.4c-1.43 1.16-3.5 1.8-5 1.53m-.64-2.22a4.9 4.9 0 0 1-3.5-3.57q-.15-.6-.54-.97C20.88 38.33 19 35.3 18 32.6a3 3 0 0 0-.43-.86c-.06 0-.23.2-.39.45-.26.42-.28.43-.32.17-.05-.35.17-.9.46-1.17.36-.32.98-.35 1.43-.07.5.32.52.6.03.52-.5-.07-.48.1.2 1.44a6.6 6.6 0 0 0 2.9 3.04c.78.38.92.4 2.05.4 1.1 0 1.3-.03 1.93-.35 1.7-.82 1.84-1.64 2.3-1.03.5.64.93.58 1.73.98.63.3 1 .4 1.76.44.84.05 1.07.02 1.78-.26a5.5 5.5 0 0 0 2.53-1.93c.63-.85 1.53-2.65 1.4-2.78-.06-.05-.27-.04-.49.02-.42.12-.45.1-.27-.24.17-.3.9-.52 1.4-.43q.73.13.87 1.12c.07.46.07.46-.32.05-.45-.47-.49-.45-.8.54a23 23 0 0 1-4.03 6.72c-.7.78-.85 1.02-.98 1.6a4.8 4.8 0 0 1-2.66 3.1c-.56.25-.92.32-1.9.35a9 9 0 0 1-1.67-.08m-2.34-4.38c-.1-.5-.22-.94-.25-1.01-.1-.25.1 1.1.22 1.55.23.77.25.4.03-.54m2.3-7.18a4.8 4.8 0 0 1-3.06-2.13c-.43-.72-.46-1.87-.07-2.4.66-.9 2-1.36 4.11-1.45a7 7 0 0 1 2.48.19c1.77.45 2.54 1.1 2.65 2.22a2.7 2.7 0 0 1-.92 2.24 5.7 5.7 0 0 1-5.19 1.33m-1.73-4.04c.18-.34 1.12-.74 2.4-1.01 1.04-.22 1.04-.22.05-.23-1.07 0-2.3.3-2.72.67-.27.24-.3.79-.08 1.18.14.26.14.26.18-.04.02-.17.1-.42.17-.57" style="fill:#f9d4a0"/>
    <path d="M14.64 70.1a5 5 0 0 1-1.93-.78c-.72-.52-.98-1.18-1.08-2.78-.09-1.25-.1-1.34-.55-2.01a36 36 0 0 1-3.39-6.3 11 11 0 0 1-.89-4.38c-.1-2.66.15-3.67 1.8-7.55a64 64 0 0 0 1.44-3.63c.46-1.38.9-3.46.78-3.67-.04-.05-.17-.1-.3-.1-.2 0-.24-.1-.24-.54 0-.63-.14-.76-.5-.5-.46.32-.53.24-.49-.5.05-.75.13-.7-.8-.45-.22.07-.27.03-.27-.21 0-.16.05-.48.12-.7.07-.24.1-.53.05-.66-.08-.23-.16-.23-1.17 0-.4.09-.43-.08-.1-.82.34-.73.32-1.03-.05-1.13-.17-.04-.3-.13-.3-.2s.2-.58.43-1.12c.24-.55.51-1.2.6-1.45.16-.43.16-.45-.13-.52-.4-.1-.38-.22.2-.73.25-.24.47-.5.47-.54s-.2-.16-.45-.25c-.4-.13-.43-.16-.22-.28a5 5 0 0 0 1.52-1.54c0-.18-.05-.2-.4-.1-.53.15-.73.14-1-.05-.2-.16-.2-.18.15-.36.51-.27.58-.62.18-.92-.3-.22-.3-.24-.1-.46a1 1 0 0 0 .2-.43c0-.22-.66-.78-1.82-1.54a7 7 0 0 1-1-.78c-.43-.5-.8-1.48-1-2.62a5 5 0 0 0-1.1-2.62A21 21 0 0 1 .26 9.13C0 7.59-.02 4.86.26 3.96A3.6 3.6 0 0 1 2.1 1.85C3.88 1.17 8.35 3 13.48 6.09c3 1.6 3.87 1.64 6.14 4.1.07.05.86-.2 1.5-.4 4.23-1.3 10.62-1.23 13.7.14.82.36 1.05.26 1.66-.7.54-.85 1.18-1.61 1.35-1.61q.09.01.1.18c0 .26.17.22.6-.14.2-.17.45-.28.55-.24.16.06 1.22-.47 1.98-1l2.08-1.23c3.65-2.1 7.31-3.52 9.12-3.52 1 0 1.47.18 2.12.8.68.66 1 1.6 1.1 3.15.2 3.55-1.12 8.08-3.32 11.42a5 5 0 0 0-.98 2.4c-.52 2.5-.65 2.7-2.6 3.98a4 4 0 0 0-1.17.97c-.03.12.05.33.18.46.21.24.2.25-.1.49-.28.2-.32.28-.22.47.07.13.3.32.5.43.4.2.4.2.05.38q-.35.18-.8.1c-.26-.03-.5-.02-.54.05-.1.15.54.85 1.14 1.27.54.37.54.5 0 .64-.35.1-.35.1.13.64.52.6.58.73.3.73-.36 0-.3.33.35 1.76.36.8.64 1.5.6 1.54-.03.05-.18.1-.35.1q-.56 0-.05 1.1c.4.9.34.95-1 .64-.3-.07-.33-.05-.33.27 0 .2.08.6.17.92.16.53.16.58-.03.58-.1 0-.36-.08-.54-.18-.3-.15-.34-.15-.46.06q-.12.23 0 .73c.1.5.1.5-.22.42-.65-.18-.69-.16-.65.4.03.47 0 .5-.26.5-.4 0-.46.23-.26 1.25.26 1.38.73 2.74 1.8 5.18 2.31 5.39 2.45 5.89 2.35 8.6a11 11 0 0 1-1 4.67 39 39 0 0 1-3.28 6.14c-.22.34-.29.67-.35 1.7-.05.7-.14 1.45-.2 1.68-.45 1.44-2.63 2.3-4.97 1.97a6.4 6.4 0 0 1-2.98-1.2 4.4 4.4 0 0 1-1.66-1.78c-.44-.81-.4-1.5.1-3.34a53 53 0 0 0 .67-2.54c.35-1.64.7-2.4 1.42-3.21.36-.4.7-.8.74-.86l.76-.91c1.93-2.24 3.58-4.78 4.11-6.32.38-1.06.4-3.15.03-3.13-.04 0-.27.25-.5.55-.85 1.12-3.02 2.92-3.84 3.17-.5.16-.52.07-.18-.8.13-.33.32-.92.42-1.31.21-.8.46-2.82.37-2.96-.03-.06-.25 0-.48.15-.5.3-.54.17-.13-.7q.82-1.73 3.9-4.33c.66-.55 3.01-3.48 3.37-4.2.44-.85.4-.82.7-.63.25.15.25.14.2-.82-.04-1.13.01-1.17.81-.68.27.17.53.3.58.3s-.16-.48-.45-1.07-.57-1.22-.62-1.4c-.08-.32-.07-.33.17-.2.13.07.4.18.56.25.3.1.3.1.15-.15a9 9 0 0 1-.45-.97c-.26-.65-.35-.73-1.65-1.61-.76-.51-1.4-.98-1.44-1.03-.07-.11.12-.18.82-.3.25-.04.45-.12.45-.18s-.5-.5-1.12-1c-1.84-1.5-1.8-1.47-2.4-1.38s-1.83.67-1.9.89c-.03.08.16.23.41.33.4.16.43.22.28.35-.24.23-1.19.44-1.96.44-.5 0-.75.08-1.19.37-.84.57-1.45.86-1.6.77-.27-.17-.74-.6-1.74-1.57a9 9 0 0 0-1.87-1.44A6.4 6.4 0 0 1 28.9 21a26 26 0 0 1 .01-6.06c.25-2.35.2-3.8-.17-4.61-.25-.56-.33-.63-.72-.7-.72-.11-.92 0-1.3.73-.47.94-.5 1.77-.17 4.23.6 4.54.22 7.62-1.16 9.33-.6.76-.63.78-1.86 1.59a21 21 0 0 0-2.28 1.87c-.9.87-1.36 1.2-1.57 1.2a4 4 0 0 1-1.64-.74q-.32-.25-1.29-.34a6 6 0 0 1-1.44-.3c-.47-.2-.47-.2-.02-.44.25-.13.46-.3.46-.36 0-.2-1.75-.96-2.19-.96-.37 0-1.1.49-2.3 1.5l-.73.6c-.27.23-.27.24-.05.4.12.1.36.17.53.17.5 0 .66.16.4.39a14 14 0 0 1-2.27 1.43 7 7 0 0 0-.96 2.17c.02.02.21-.03.41-.11.2-.1.4-.13.43-.1.04.03-.08.38-.25.78-.18.39-.43.98-.55 1.3-.24.58-.24.58.1.35.18-.13.5-.27.68-.32.35-.08.35-.08.3.89s-.04.97.24.78c.34-.22.3-.26.58.5.13.33.46.9.75 1.25l.73.9c.11.14.3.34.42.44s.21.26.21.34.64.74 1.42 1.46c2.16 1.99 2.85 2.7 3.4 3.56.5.73.74 1.39.6 1.53-.04.04-.2-.02-.38-.13-.16-.1-.34-.2-.38-.2-.24 0 .27 3 .73 4.36.17.5.3.92.27.94a4 4 0 0 1-.86-.41 15 15 0 0 1-3.27-2.76c-.44-.5-.62-.64-.7-.53a8 8 0 0 0 .03 2.59c.42 1.5 1.97 4.02 3.75 6.07.64 1.25 2.83 2.55 3.82 6.34.15.58.45 1.54.66 2.14.62 1.75.44 2.98-.59 4.03-.67.7-1.9 1.46-2.79 1.75-.78.25-2.6.4-3.28.27zm1.95-.75c0-.05-.1-.4-.23-.75a10 10 0 0 1-.47-2.68c.03-.1.1 0 .15.2s.34 1 .64 1.8c.61 1.59.51 1.52 1.6 1 .55-.25.55-.25.54-1.53a4 4 0 0 0-.2-1.66c-.24-.43-.26-.52-.1-.52.15 0 .7 1.35.87 2.16.1.4.2.75.24.75.15 0 .83-.84 1.1-1.36.35-.7.25-1.45-.36-2.9-.49-1.13-.49-1.13-1.2-1.43-1-.4-3.1-.43-4.35-.04-.2.06-3.33 1-4.2-.48-1-1.33-2.45-5.05-2.65-6.82-.32-2.78.01-4.67 1.4-7.88a17 17 0 0 0 .6-1.52c.1-.31.5-1.45.68-1.88.21-.5.48-1.4.47-1.61 0-.11-.22.4-.48 1.13A34 34 0 0 1 9.5 46.2l-.86 2.1c-.24.58-.58 1.57-.76 2.22a9 9 0 0 0-.32 2.92c0 1.56.04 1.89.34 2.9.2.64.41 1.33.5 1.53a35 35 0 0 0 3.56 6.54c.28.44.32.63.35 1.93.05 1.67.16 1.96 1 2.5.84.57.85.55.5-.76-.26-.9-.34-1.97-.15-1.86.06.04.14.3.18.59.08.6.67 2.05.97 2.4.16.19.36.24 1 .24.42 0 .78-.05.78-.1m24.65-.1c.18-.2.73-1.43 1.03-2.28.13-.36.13-.36.13.13.01.28-.1.8-.22 1.2-.28.8-.17.94.53.6.84-.4 1.15-1.2 1.16-2.93 0-.6.07-1.18.18-1.43.1-.24.13-.4.07-.36q-.1.03-.17-.1c-.12-.33-1.64-1.3-2.53-1.62a6 6 0 0 0-2.4-.33c-1.42 0-1.56 0-2.26.34-.75.34-.75.34-1.19 1.55-.55 1.55-.57 2.25-.08 3.03.2.3.5.67.7.82.34.27.34.27.44-.2.2-.93.71-2.32.9-2.48.18-.14.2-.13.11.14a10 10 0 0 0-.4 2.65c.02.67.03.68.57.94 1.03.52 1 .53 1.43-.5.21-.5.45-1.16.53-1.48.08-.31.2-.63.26-.7.2-.2-.04 1.39-.3 2.05-.12.34-.23.74-.23.9 0 .25.06.27.77.27.6 0 .82-.06.97-.22zM11.21 41.73q-.07-.06-.08.08.01.15.08.08a.1.1 0 0 0 0-.16M21.53 25c.15-.1.27-.28.27-.4 0-.18-.02-.18-.15-.01-.09.1-.29.28-.45.4q-.3.19-.12.2a1 1 0 0 0 .45-.2zm13.06 0a2 2 0 0 1-.57-.45q-.19-.23-.2-.11c0 .25.56.75.86.75.25 0 .25-.02-.09-.2zm-14.4-2.18c.36-.56-.2-1.18-.77-.81-.28.18-.3.6-.05.87.33.33.56.3.8-.06zm14.92.16c.35-.34.13-1.07-.32-1.07-.6 0-.82.55-.42 1 .23.25.53.28.74.07m-11.5-2.78c.58-.42.92-1.34.91-2.4 0-1.03-.2-1.5-.78-2-.98-.81-2.4-.47-3.8.93-.73.72-.73.72-.29.88.25.08.6.25.78.37.33.2.33.2.06.4-.26.17-.26.18.66 1.12.5.52 1.04.97 1.18 1 .43.1.9-.02 1.28-.3m9.55.25a10 10 0 0 0 2.1-1.96q-.01-.09-.18-.1c-.47 0 .03-.52.73-.76.48-.17.48-.17-.3-.92-2-2-4.04-1.7-4.5.64-.26 1.25.28 2.68 1.14 3.05.47.2.58.2 1.01.05m-24.9-1.5c.47-.14.7-.3.9-.6.4-.57.28-.9-.65-1.83-.7-.72-.77-.83-.77-1.3 0-.3.05-.71.1-.95.3-1.1.32-.98-.68-2.02a10 10 0 0 1-1.22-1.5 38 38 0 0 1-1.36-3.27l-.53-1.32a8 8 0 0 1-.44-1.2c0-.73 3.66 1.2 5.38 2.87 1.56 1.52 2.52 3.05 3.6 5.77.34.86.72 1.76.84 2 .23.43.23.43.31.1.15-.6-.17-2.68-.6-3.88a11.5 11.5 0 0 0-3.77-5.25c-2.15-1.75-5.17-3-6.45-2.65-.68.18-1.12 2.45-.88 4.59a11.5 11.5 0 0 0 3.32 7.07 6.4 6.4 0 0 1 1.7 2.9c.23.7.28.73 1.2.46zm40.2-.46.32-.94c.18-.57.6-1.16 1.68-2.3a11.5 11.5 0 0 0 2.71-5.4c.31-1.4.3-4.55 0-5.15-.53-.98-.73-1.03-2.58-.54a15 15 0 0 0-4.3 2.1 11.7 11.7 0 0 0-4.07 5.39c-.55 1.55-.74 4.2-.3 4.2.06 0 .4-.78.74-1.73s.87-2.22 1.16-2.83c1.2-2.5 3.67-4.84 6.4-6.01 1.03-.45 1.65-.58 1.65-.35a5 5 0 0 1-.3.8c-.19.39-.5 1.2-.73 1.8-1 2.76-1.52 3.7-2.57 4.77-.49.48-.88.92-.88.99s.1.59.24 1.16c.25 1.05.25 1.05 0 1.4-.13.18-.49.54-.79.8q-.9.74-.63 1.54c.12.37.4.57 1.12.77.82.24.87.22 1.12-.47zM27.2 46.57a7 7 0 0 1-4.52-2.53q-1.31-1.59-1.1-1.65c.12-.04.12-.16 0-.52a2 2 0 0 1-.1-.5c.06-.07.45.33.98 1.05a8 8 0 0 0 2.92 2.62c.9.44 1.03.47 2.25.5 1 .04 1.46 0 1.95-.15 1.38-.45 2.48-1.33 3.76-3 .7-.9 1.04-1.2.9-.73-.18.6-.2.86-.08.93q.12.08-.15.35a9 9 0 0 0-.74.9 7.3 7.3 0 0 1-4.4 2.69 4 4 0 0 1-1.67.04m-.7-2.22a4.8 4.8 0 0 1-3.47-3.55 2.4 2.4 0 0 0-.75-1.2 21 21 0 0 1-4.18-6.73 5 5 0 0 0-.55-1.12c-.05 0-.22.2-.38.45-.28.46-.28.46-.32.13-.1-.82.76-1.54 1.55-1.31.8.22 1.03.7.3.63-.42-.05-.42-.05-.1.72a7 7 0 0 0 3.32 3.78c.73.36.88.39 2 .39 1.1 0 1.3-.04 1.94-.36a6 6 0 0 0 1.42-1.05c.68-.7.62-.36.95.1.17.27.67.32 1.02.56 2.3 1.52 5.2.82 6.87-1.63.62-.92 1.35-2.44 1.23-2.56-.06-.05-.27-.04-.49.02q-.65.16-.19-.3c.78-.78 2.02-.36 2.2.74.07.47.07.47-.3.08-.2-.22-.4-.4-.44-.4s-.2.4-.39.88a31 31 0 0 1-2.26 4.5c-.46.7-1.87 2.4-2.4 2.9a2 2 0 0 0-.3.73 4.7 4.7 0 0 1-4.6 3.68 9 9 0 0 1-1.68-.08m-2.32-4.48a5 5 0 0 0-.26-.95c-.1-.1.04.99.22 1.6.21.74.24.3.04-.65m2.71-7a9 9 0 0 1-2.18-.82c-1.3-.82-1.95-2.27-1.53-3.38.35-.92 1.06-1.36 2.77-1.7 2.45-.5 5.36.06 6.23 1.2.68.9.5 2.15-.47 3.17a5.6 5.6 0 0 1-4.82 1.54zm-2.08-4.2c.3-.35 1.15-.7 2.32-.93 1.04-.22 1.04-.22-.05-.22-1.29 0-2.38.33-2.76.84-.23.3-.23.33-.02.79s.21.47.26.1c.03-.2.14-.46.25-.6z" style="fill:#f79a91"/>
    <path d="M14.6 70.05c-2.22-.5-2.84-1.22-2.95-3.45-.05-.98-.12-1.34-.32-1.68L10.13 63a36 36 0 0 1-1.65-3c-1.3-2.73-1.72-4.36-1.7-6.64 0-2.17.31-3.38 1.9-7.21 1.36-3.26 1.83-4.7 2.1-6.26.14-.93.1-1.1-.35-1.11q-.15-.02-.15-.48-.01-.77-.4-.52a2 2 0 0 1-.36.2c-.2.06-.22 0-.17-.6.04-.46.02-.66-.1-.71a.3.3 0 0 0-.26.04c-.06.05-.25.13-.44.18-.38.09-.39.06-.18-.93.18-.88.07-1-.74-.75-.3.1-.6.12-.66.06-.05-.05 0-.3.1-.57.12-.26.25-.67.3-.92.1-.44.08-.46-.26-.46-.19 0-.34-.05-.34-.1s.25-.68.55-1.37c.74-1.67.73-1.6.34-1.8-.33-.14-.33-.14.24-.71.57-.58.57-.58.15-.73s-.42-.15.48-1.04c.87-.85 1.16-1.3.7-1.06-.33.17-1.07.28-1.3.2-.27-.11-.25-.4.04-.48.23-.07.7-.67.53-.67-.06 0-.23-.1-.4-.24-.3-.23-.3-.23-.03-.52.28-.3.28-.3.02-.62a9 9 0 0 0-1.37-1.07c-.6-.4-1.23-.88-1.38-1.05a6 6 0 0 1-.93-2.6 4.3 4.3 0 0 0-1-2.45A21 21 0 0 1 .1 7.49a9 9 0 0 1 .2-3.57c.25-.9 1.15-1.9 1.9-2.11 1.51-.41 4.1-.2 7.53 1.98 4.22 2.67 6.28 3.78 8.4 5 .38.22 1.61 1.27 1.7 1.3a5 5 0 0 0 1.4-.3c1.7-.5 2.74-.68 4.95-.85 3.02-.23 6.33.14 8.46.94.44.16.9.26 1.05.23.15-.04.48-.41.78-.9.54-.83 1.18-1.6 1.35-1.6q.09.02.1.19c0 .28.3.2.61-.13q.3-.31.53-.25c.15.04.57-.14 1.16-.5C45.93 3.45 50 1.68 52.3 1.67c1.4 0 2.5.84 2.9 2.22.28.9.35 2.55.2 4.02a21 21 0 0 1-3.32 9.24c-.59.9-.67 1.12-.97 2.52-.48 2.24-.68 2.56-2.3 3.55a9 9 0 0 0-1.16.86c-.42.4-.42.4-.13.7s.3.32.06.49a1 1 0 0 1-.34.17c-.24 0-.06.37.36.7.45.37.45.37.1.5-.24.1-.47.1-.82 0-.27-.07-.52-.1-.56-.05-.12.1.38.7 1.04 1.2.34.28.62.54.62.6s-.16.17-.37.25c-.38.16-.38.16.12.7.55.6.6.7.32.7-.35 0-.3.33.23 1.55.78 1.77.77 1.73.34 1.73-.32 0-.36.04-.33.33.02.19.15.63.3.98.3.77.2.88-.66.59-.5-.17-.56-.17-.63 0-.04.1 0 .53.07.92.1.4.13.75.1.78s-.25-.03-.49-.13c-.57-.24-.73-.06-.62.7.08.55.08.55-.3.44-.54-.15-.65-.06-.58.5.06.43.04.47-.22.47-.4 0-.46.17-.3 1.07.3 1.62.92 3.39 2.25 6.34 1 2.22 1.71 4.23 1.88 5.34.2 1.39.1 3.62-.24 4.87a26 26 0 0 1-2.67 6.02c-.6 1-1.36 2.25-1.55 2.59a4 4 0 0 0-.15 1.36c0 2-.56 2.84-2.24 3.36a6.8 6.8 0 0 1-5.7-.88c-1-.67-1.4-1.07-1.77-1.8-.48-.92-.45-1.55.13-3.47.12-.4.38-1.41.73-2.9a6 6 0 0 1 1.47-2.96c.8-.91 2.34-2.81 2.87-3.54a27 27 0 0 0 1.47-2.11c0-.03.2-.4.44-.82q.9-1.6.94-3.07c.02-.86-.1-1.52-.26-1.51-.05 0-.3.28-.57.62-.92 1.17-2.96 2.85-3.77 3.1-.5.16-.5.14-.1-.97.16-.47.35-1.08.41-1.36.17-.76.37-2.63.3-2.75-.04-.06-.23-.01-.42.1-.2.1-.38.18-.42.14-.25-.25 1.03-2.15 2.22-3.28 3.06-2.9 4.97-5.1 5.43-6.21.17-.4.28-.54.41-.48l.3.12q.12.03.08-.92c-.02-.53 0-.97.04-.97s.34.13.67.3a5 5 0 0 0 .66.3 9 9 0 0 0-.54-1.3 9 9 0 0 1-.56-1.32c.02-.03.24.04.48.14s.46.18.5.18c.02 0-.15-.46-.4-1.03a4 4 0 0 0-.54-1.03c-.06 0-.7-.42-1.45-.93-1.44-1-1.45-1.02-.42-1.2.25-.03.45-.11.45-.17 0-.05-.5-.5-1.12-1-1.84-1.5-1.8-1.47-2.4-1.38s-1.84.67-1.9.88c-.03.09.16.24.41.34.4.16.43.22.28.35-.24.23-1.19.44-1.96.44-.5 0-.75.08-1.19.37-.84.57-1.45.86-1.6.77-.27-.17-.74-.6-1.75-1.58a9 9 0 0 0-1.86-1.43 6.3 6.3 0 0 1-3.2-4.02c-.32-1.1-.39-4.3-.15-6.52.3-2.68.26-3.8-.1-4.62-.16-.37-.26-.68-.2-.68.24-.03-.48-.22-.84-.22-.55-.01-.63.05-1.03.8-.47.9-.5 1.76-.18 4.22.47 3.52.33 6.54-.38 7.97-.13.24-.23.52-.23.6 0 .33-1.4 1.72-2.39 2.36-.56.36-1.59 1.2-2.29 1.86-.9.87-1.36 1.2-1.57 1.2a4 4 0 0 1-1.64-.75 3 3 0 0 0-1.29-.33 6 6 0 0 1-1.44-.3c-.47-.2-.47-.2-.02-.44.25-.13.46-.3.46-.36 0-.2-1.75-.96-2.18-.96s-.75.2-2.2 1.4l-.83.7q-.51.4.44.56c.26.04.46.14.46.22 0 .14-1.9 1.49-2.1 1.49q-.12-.02-.17-.15c-.04-.13-.76 1.45-1 2.2-.08.26-.06.28.22.2.17-.04.4-.1.5-.15.16-.06.14.06-.12.64a24 24 0 0 0-.78 1.92c0 .02.21-.06.48-.2.84-.4.9-.35.81.69-.04.5-.05.9-.02.9a1 1 0 0 0 .3-.14c.13-.08.25-.12.27-.1l.36.73c.48 1.02 2.3 3.14 4.4 5.13 1.9 1.8 2.87 3.03 3.03 3.82q.17.63-.35.2c-.4-.3-.47-.21-.38.7a17 17 0 0 0 .73 3.5l.31.93c0 .02-.38-.15-.84-.4-.95-.5-2.07-1.43-3.17-2.64-.55-.6-.78-.78-.86-.67-.05.1-.1.66-.1 1.26 0 .96.05 1.2.42 2.1.24.57.64 1.39.9 1.83.5.82 1.9 2.75 2.52 3.44 1.6 2.07 2.46 2.63 3.68 5.9.2.55.47 1.66.73 2.44.58 1.69.61 2.35.17 3.2-.39.78-.58 1-1.39 1.6a7 7 0 0 1-2.63 1.26c-.97.25-1.95.28-2.76.1m1.93-.62a5 5 0 0 0-.23-1.2c-.36-1.4-.5-2.34-.34-2.24.06.04.15.25.2.46.07.42.94 2.7 1.07 2.85.05.04.43-.08.86-.26.75-.32.78-.35.85-.84a7 7 0 0 0-.26-2.42c-.14-.18-.29-.57-.2-.57.13 0 .7 1.32.88 2.14.21.9.21.9.71.37 1.08-1.17 1.14-1.86.37-3.78-.5-1.26-.5-1.26-1.3-1.54a8.5 8.5 0 0 0-4.19-.05 7 7 0 0 0-2.49 1.36c-.42.4-.42.4-1.54-1.34a18 18 0 0 1-1.12-1.88c0-.08-.17-.47-.38-.9a9 9 0 0 1-.48-1.05l-.4-1.15a14 14 0 0 1-.68-4.18c0-1.77.46-3.6 1.41-5.76.24-.54.64-1.55.88-2.25.25-.7.5-1.34.53-1.4.1-.16.57-1.88.57-2.05 0-.07-.27.59-.6 1.45-.32.87-.82 2.13-1.1 2.8-1.73 4.14-1.93 4.83-2.02 6.93a10 10 0 0 0 .53 4.1c.36 1.15 2 4.52 2.74 5.64 1.38 2.08 1.38 2.1 1.46 3.67.07 1.62.22 2 1 2.53.87.6.92.48.48-1.1-.2-.73-.25-1.66-.07-1.35.05.1.13.4.18.65.14.78.87 2.25 1.18 2.39.28.1 1.38.1 1.5-.03m25.07-.8c.24-.44.5-1.06.58-1.36.14-.46.17-.5.21-.24.03.17-.08.7-.23 1.18s-.24.9-.2.95c.11.12 1.1-.37 1.4-.7q.5-.54.51-2.37c0-.61.07-1.18.18-1.44.18-.42.17-.44-.15-.7a6 6 0 0 0-2.48-1.5 6 6 0 0 0-2.46-.32c-1.45 0-1.63.02-2.26.3-.67.33-.7.35-1.05 1.29-.84 2.16-.8 2.74.3 3.9.62.68.62.68.7.2.17-.97.74-2.6.91-2.6.05 0 0 .36-.13.8a9 9 0 0 0-.22 1.75c0 .93 0 .93.7 1.25.4.17.78.3.86.3.16 0 .37-.44.93-2.05.4-1.13.4-1.14.34-.48a7 7 0 0 1-.53 2.04c-.25.48-.05.63.84.63.82 0 .82 0 1.25-.82zM21.58 25c.12-.11.22-.3.22-.4q.02-.19-.3.1c-.18.18-.46.38-.64.46-.33.16-.33.16.08.1.23-.04.52-.15.64-.26m13.26.12a4 4 0 0 1-.7-.5q-.34-.34-.33-.13c0 .25.48.68.84.74.54.1.56.08.2-.11m11.66 0q-.08-.06-.08.08t.08.08a.1.1 0 0 0 0-.16m-28.74-1.23a.1.1 0 0 0-.16 0q-.06.08.08.09t.08-.1m2.36-.96c.5-.45.07-1.26-.53-1.03-.4.16-.53.55-.28.93q.34.52.81.1m15.08-.1c.15-.22.16-.34.05-.6-.18-.38-.4-.47-.78-.3-.23.1-.3.24-.3.54 0 .65.7.9 1.03.37zm-11.6-2.62c.36-.26.8-1.11.94-1.8a3.6 3.6 0 0 0-.36-2.1 3 3 0 0 0-.7-.67c-.35-.24-.52-.28-1.1-.23-.9.08-1.58.45-2.46 1.33-.73.73-.73.73-.26.9.71.24 1.21.77.74.77q-.17 0-.19.07c0 .18 1.88 1.98 2.11 2.03.43.1.9-.02 1.28-.3m9.62.2c.22-.1.8-.57 1.3-1.08.77-.78.86-.92.63-.92-.45 0-.25-.27.45-.64.65-.32.65-.32-.09-1.06-2.02-2.02-4.12-1.67-4.53.75-.22 1.28.3 2.58 1.17 2.96.48.2.6.2 1.07 0m-22.92-.43c.62-.17.96-.55.86-.96l-.54-1.9a13 13 0 0 1-.6-3.08c-.15-1.73-.26-2-1.15-2.93a16 16 0 0 1-2-2.83 15 15 0 0 0-2.26-2.83q-1.12-.95.8-.01c2.04.98 3.8 2.4 5 4.06.84 1.18 1.32 2.1 2.3 4.5.4.98.77 1.85.84 1.9.46.48.16-2.5-.42-4.08a10.6 10.6 0 0 0-2.68-4.27c-2-2.04-5.63-3.87-7.25-3.65-.6.08-.63.12-.95 1-.4 1.13-.37 3.56.06 5.28a11.4 11.4 0 0 0 3 5.38c.9.99 1.33 1.7 1.73 2.92.13.38.31.67.48.76.15.07.4.24.57.38.26.2 1 .43 1.58.47.1 0 .38-.04.63-.11m36.2-.01c.62-.1.82-.2 1.03-.48.14-.2.35-.36.47-.36q.29.02.77-1.57a5 5 0 0 1 .87-1.41l.87-.96a11.7 11.7 0 0 0 2.7-5.57c.1-.44.17-1.47.16-2.61 0-1.6-.03-1.95-.22-2.3-.35-.66-.57-.85-.97-.85-.59 0-2.87.6-3.4.92l-1.16.63c-3.5 1.88-5.95 5.69-5.94 9.26 0 1.1.13 1.5.34 1.1.08-.14.4-.92.7-1.74 1.44-3.9 2.8-5.8 5.36-7.53.95-.64 2.4-1.36 3-1.5.34-.08.33-.06-.2.39a15 15 0 0 0-2.58 3.38c-.49.89-1.07 1.7-1.9 2.6-.7.78-.82 1.1-.96 2.8-.1 1.2-.23 1.89-.68 3.38-.56 1.88-.56 1.88-.22 2.15.2.15.5.3.7.32.21.03.4.05.43.07zm-19.75 24.4a6 6 0 0 1-2.3-1.12 5 5 0 0 1-1.38-2.34c-.15-.58-.3-.85-.89-1.45a21 21 0 0 1-4.27-7.1c-.29-.77-.29-.77-.7-.3-.23.26-.38.37-.34.25s.07-.3.07-.38c0-.1.14-.33.31-.54.24-.28.42-.37.73-.37.48 0 .98.2 1.07.44.06.14-.02.16-.37.1-.4-.1-.43-.08-.34.2.22.72.91 2.04 1.37 2.62a5.5 5.5 0 0 0 4.35 2.26c.76 0 1-.06 1.8-.45a5 5 0 0 0 1.47-1.1c.57-.65.55.03.88.5.9 1.24 2.8 1.3 4.34 1 1.9-.34 3.56-1.87 4.6-4.21.4-.87.37-.91-.23-.82-.52.08-.52.08-.18-.23.5-.45 1.42-.45 1.78 0 .13.18.24.5.24.7 0 .36-.02.37-.14.12-.3-.62-.68-.41-.95.5s-1.45 3.26-2.23 4.43a20 20 0 0 1-1.64 2.1c-.74.79-.9 1.03-1.08 1.7a4.6 4.6 0 0 1-4.38 3.53c-.57.03-1.28 0-1.59-.05zm.4-1.3a.5.5 0 0 0-.3 0q-.1.05.16.05t.15-.06zm2.12-.13a.1.1 0 0 0-.16 0q-.06.08.08.08t.08-.08m-3.72-.51q-.02-.1-.2-.2-.24-.09-.04.12.25.3.24.08m-.48-.42q-.02-.06-.22-.22-.28-.23-.04.05.25.31.25.17zm-.45-.66c-.07-.05-.17-.33-.2-.63-.19-1.18-.35-1.82-.45-1.82-.29 0 .03 1.78.43 2.38.1.17.23.27.28.23.04-.04.01-.12-.06-.16m3.56-1.68q-.08-.06-.08.08t.08.08a.1.1 0 0 0 0-.16m-1.17-6.83c-1.96-.27-3.55-1.5-3.88-2.97-.3-1.34.4-2.23 2.2-2.73 2.96-.83 6.41-.08 7.1 1.54.23.56.2 1.1-.13 1.8-.77 1.63-3.09 2.67-5.3 2.36zm-2.26-4.1c.24-.4 2.34-1.1 3.34-1.13.4-.01.37-.03-.18-.12-1.08-.2-2.96.18-3.53.7-.25.24-.3.37-.24.67.04.2.14.46.23.56.12.15.16.12.22-.18.04-.2.11-.43.16-.5m10.26 3q0-.1.12-.12.11.01.12.13 0 .1-.12.12a.12.12 0 0 1-.12-.12z" style="fill:#e9a55a"/>
    <path d="M14.6 70.05c-2.22-.5-2.84-1.22-2.95-3.45-.05-.98-.12-1.34-.32-1.68L10.13 63a36 36 0 0 1-1.65-3c-1.3-2.73-1.72-4.36-1.7-6.64 0-2.17.31-3.38 1.9-7.21 1.36-3.26 1.83-4.7 2.1-6.26.14-.93.1-1.1-.35-1.11q-.15-.02-.15-.48-.01-.77-.4-.52a2 2 0 0 1-.36.2c-.2.06-.22 0-.17-.6.04-.46.02-.66-.1-.71a.3.3 0 0 0-.26.04c-.06.05-.25.13-.44.18-.38.09-.39.06-.18-.93.18-.88.07-1-.74-.75-.3.1-.6.12-.66.06-.05-.05 0-.3.1-.57.12-.26.25-.67.3-.92.1-.44.08-.46-.26-.46-.19 0-.34-.05-.34-.1s.25-.68.55-1.37c.74-1.67.73-1.6.34-1.8-.33-.14-.33-.14.24-.71.57-.58.57-.58.15-.73s-.42-.15.48-1.04c.87-.85 1.16-1.3.7-1.06-.33.17-1.07.28-1.3.2-.27-.11-.25-.4.04-.48.23-.07.7-.67.53-.67-.06 0-.23-.1-.4-.24-.3-.23-.3-.23-.03-.52.28-.3.28-.3.02-.62a9 9 0 0 0-1.37-1.07c-.6-.4-1.23-.88-1.38-1.05a6 6 0 0 1-.93-2.6 4.3 4.3 0 0 0-1-2.45A21 21 0 0 1 .1 7.49a9 9 0 0 1 .2-3.57c.25-.9 1.15-1.9 1.9-2.11 1.51-.41 3.87.2 7.53 1.98 2.48 2.24 6.91 4.14 8.9 5.35.5.3 1.11.92 1.2.96.1.03.72-.1 1.4-.3 1.7-.5 2.74-.7 4.95-.86 3.02-.23 6.33.14 8.46.94.44.16.9.26 1.05.23.15-.04.48-.41.78-.9.54-.83 1.18-1.6 1.35-1.6q.09.02.1.19c0 .28.3.2.61-.13q.3-.31.53-.25c.15.04.57-.14 1.16-.5C45.93 3.45 50 1.68 52.3 1.67c1.4 0 2.5.84 2.9 2.22.28.9.35 2.55.2 4.02a21 21 0 0 1-3.32 9.24c-.59.9-.67 1.12-.97 2.52-.48 2.24-.68 2.56-2.3 3.55a9 9 0 0 0-1.16.86c-.42.4-.42.4-.13.7s.3.32.06.49a1 1 0 0 1-.34.17c-.24 0-.06.37.36.7.45.37.45.37.1.5-.24.1-.47.1-.82 0-.27-.07-.52-.1-.56-.05-.12.1.38.7 1.04 1.2.34.28.62.54.62.6s-.16.17-.37.25c-.38.16-.38.16.12.7.55.6.6.7.32.7-.35 0-.3.33.23 1.55.78 1.77.77 1.73.34 1.73-.32 0-.36.04-.33.33.02.19.15.63.3.98.3.77.2.88-.66.59-.5-.17-.56-.17-.63 0-.04.1 0 .53.07.92.1.4.13.75.1.78s-.25-.03-.49-.13c-.57-.24-.73-.06-.62.7.08.55.08.55-.3.44-.54-.15-.65-.06-.58.5.06.43.04.47-.22.47-.4 0-.46.17-.3 1.07.3 1.62.92 3.39 2.25 6.34 1 2.22 1.71 4.23 1.88 5.34.2 1.39.1 3.62-.24 4.87a26 26 0 0 1-2.67 6.02c-.6 1-1.36 2.25-1.55 2.59a4 4 0 0 0-.15 1.36c0 2-.56 2.84-2.24 3.36a6.8 6.8 0 0 1-5.7-.88c-1-.67-1.4-1.07-1.78-1.82-.46-.88-.36-2.27.27-3.86.06-.16.24-.9.4-1.64.53-2.46 1-3.33 2.3-4.26 1.21-.87 1.3-.95.83-.73-.5.25-.49.12.1-.53.26-.3.48-.57.48-.61s.18-.28.4-.53q.9-1.04 1.17-1.53c.1-.16.3-.42.45-.58s.28-.4.28-.52.05-.24.11-.26c.15-.06.83-1.35 1.13-2.14.3-.77.35-2.6.1-3.04-.13-.26-.13-.26-.55.06-.23.17-.5.46-.57.63-.09.18-.28.38-.43.44-.15.07-.27.17-.27.23 0 .12-1.23 1.28-1.36 1.29-.05 0-.4.22-.79.48-.38.27-.74.44-.79.4-.05-.06.07-.57.27-1.15a9 9 0 0 0 .63-3.06c.03-.93-.06-1.1-.42-.85q-1.04.7.27-1.24a13 13 0 0 1 2.03-2.28 23 23 0 0 0 4.85-5.68q.22-.6.4-.5l.3.13q.12.03.08-.92c-.02-.53 0-.97.04-.97s.34.13.67.3a5 5 0 0 0 .66.3 9 9 0 0 0-.54-1.3 9 9 0 0 1-.56-1.32c.02-.03.24.04.48.14s.47.18.5.18-.14-.43-.36-.96a8 8 0 0 1-.42-1.08 12 12 0 0 1-2.74-1.9c.02-.07.3-.12.6-.12.93 0 .92-.17-.07-1.16-.88-.9-1.18-1.14-1.58-1.28-.1-.04-.2-.15-.2-.24 0-.24-1.26-.22-1.89.03-.27.1-.6.2-.73.24-.22.06-.79.78-.79 1 0 .06.14.14.31.19.5.12.22.3-.46.3-.7 0-1.9.26-1.9.4q-.01.09-.13.1c-.07 0-.28.1-.46.23a2 2 0 0 1-.7.32c-.38.07-.6-.1-1.8-1.3l-.42-.38-.66-.6c-.2-.2-.43-.34-.52-.34a3 3 0 0 1-1.23-.65 3 3 0 0 0-.6-.48c-.28-.2-.55-.46-.59-.58a2 2 0 0 0-.35-.51c-.55-.55-1.16-3.37-1.15-5.28 0-.51.1-1.55.2-2.32.14-.9.2-2.08.2-3.31 0-1.8-.03-1.94-.28-2.2-.35-.37-.22-.6.28-.5.21.03.7.07 1.08.09.38 0 .7.07.7.13s.2.1.45.08a8 8 0 0 1 2.5.46c.14.02.3.09.37.15.17.14 1.53.53 1.6.46.11-.11-2.4-.94-3.58-1.18a25 25 0 0 0-10.23.25c-1.12.29-2.67.85-2.58.94.04.03.27-.03.52-.14a18 18 0 0 1 3.6-.93l1.88-.23a5 5 0 0 1 1.07-.08c.03.03-.07.32-.23.64-.26.53-.28.72-.25 2.03.01.8.1 1.66.17 1.94.07.27.15.76.16 1.1l.12 2.27c.1 1.64-.06 3.4-.32 3.56-.06.03-.1.17-.1.3 0 .3-.37 1.43-.55 1.67-.07.1-.46.52-.88.93s-.76.8-.76.87c0 .05-.36.32-.8.58-.43.27-1.2.89-1.69 1.37-.53.52-.96.85-1.04.8q-.12-.07-.06.05c.1.14-.47.63-.73.63-.2 0-1.37-.57-1.64-.81a3 3 0 0 0-1.16-.3q-2.66-.28-1.35-.83c.36-.15.36-.15.08-.45-.63-.68-2.32-1.14-2.8-.76l-.5.42c-.19.17-.39.3-.44.3a7 7 0 0 0-1.57 1.6c0 .26.25.47.57.47.43 0 .33.3-.17.53-.25.1-.64.3-.86.45q-.69.44-.4-.12.13-.23.04-.25c-.13 0-1.4 3.14-1.32 3.23.04.04.24 0 .46-.07.21-.07.4-.12.41-.1.02 0-.2.57-.5 1.24-.29.67-.53 1.25-.53 1.3 0 .04.21-.03.48-.16.85-.4.9-.36.8.7-.07.8-.06.9.1.84l.35-.13c.1-.04.25.19.42.58.43.97 2.2 3.08 4.36 5.18 1.88 1.82 2.86 3.02 3.07 3.78.1.3.08.35-.1.27-.1-.05-.32-.1-.45-.1-.22-.01-.24.05-.2.96a8 8 0 0 0 .35 2.24c.52 1.43.62 1.75.56 1.84-.03.06-.2-.03-.37-.2s-.42-.3-.56-.3a.7.7 0 0 1-.44-.2 19 19 0 0 1-2.27-2.1c-.94-1.01-.94-1.01-1.1-.66-.16.4-.2 2.54-.04 2.64.06.04.2.37.32.74s.26.7.32.74c.05.03.18.24.28.45a25 25 0 0 0 2.7 3.87c.53.67.82 1.14.74 1.19-.07.04.23.33.68.65 1.41 1 1.91 1.88 2.55 4.44.11.43.41 1.4.67 2.19.58 1.69.61 2.35.17 3.2-.39.78-.58 1-1.39 1.6a7 7 0 0 1-2.63 1.26c-.97.25-1.95.28-2.76.1m1.73-.55c.3-.1.31-.02-.08-1.5-.26-1-.45-2.28-.28-1.88l.63 1.64c.28.77.56 1.44.61 1.5.06.07.42-.02.88-.22.75-.32.78-.35.85-.84a7 7 0 0 0-.26-2.42c-.14-.18-.29-.57-.2-.57.14 0 .68 1.3.85 2.1.2.9.2.9.48.7.15-.1.47-.5.7-.84.63-.94.6-1.6-.1-3.3-.5-1.25-.52-1.26-1.03-1.41-.28-.08-.59-.2-.67-.28-.26-.21-1.77-.3-2.68-.13-1.49.25-2.39.6-3.26 1.25-.59.45-.88.58-.73.34q.05-.11-.08-.06c-.1.03-.25-.1-.36-.28l-.7-1.15c-.77-1.26-1.8-3.3-1.88-3.75a4 4 0 0 0-.3-.85c-.14-.25-.37-1-.5-1.7a10 10 0 0 1-.2-2.95c.06-1.72.15-2.18.76-3.8.16-.4.3-.82.3-.9 0-.1.12-.43.3-.76.14-.33.42-1 .6-1.5 1.34-3.68 1.48-4.13 1.34-4.25-.1-.08-.27.25-.6 1.25-.26.74-.9 2.37-1.4 3.6-1.57 3.76-1.83 4.74-1.83 6.95 0 2.77 1.2 5.9 3.76 9.9.97 1.52.97 1.52.98 2.49 0 1.52.1 2.02.46 2.47s1.16.97 1.3.83a4 4 0 0 0-.17-1.15c-.15-.6-.26-1.2-.26-1.35 0-.43.2-.2.28.34.13.78.87 2.3 1.2 2.43s.9.15 1.3.05m25.23-.77c.21-.4.5-1.02.61-1.37.2-.54.23-.58.24-.28 0 .2-.1.73-.26 1.18-.15.46-.23.86-.2.9.12.12 1.1-.37 1.4-.7q.5-.54.52-2.36c0-1.15.07-1.36.74-2.38.64-.95 2.1-3.67 1.87-3.48-.1.08-.37.56-.62 1.07a7 7 0 0 1-.68 1.16 2 2 0 0 0-.3.49c-.09.29-.64 1.04-.76 1.04-.04 0-.26-.18-.5-.4a4.6 4.6 0 0 0-1.78-1.13c-.22-.04-.36-.13-.32-.2q.05-.1-.04-.07c-.09.03-.54-.04-1.08-.13a6.3 6.3 0 0 0-3.64.3c-.75.36-.75.36-1.2 1.57-.72 1.9-.63 2.69.46 3.8.51.54.51.54.61.13.22-.93.71-2.41.82-2.48q.12-.06.06.2a8 8 0 0 0-.3 2.24c0 .86 0 .86.5 1.1 1.01.5 1.28.48 1.47-.14.04-.13.26-.76.5-1.4.35-.95.41-1.05.36-.6-.09.7-.4 1.83-.56 2.02-.06.08-.08.26-.04.4.07.22.18.25.9.25.83 0 .83 0 1.22-.73m5.36-9.22c.11-.26.16-.5.1-.54s-.14.1-.18.3-.13.4-.2.43c-.13.08-.14.3 0 .3.04 0 .17-.22.3-.5zm.88-2.24c.36-1.06.36-1.07.2-.97-.07.04-.13.17-.13.28 0 .1-.08.36-.18.54s-.2.53-.25.76-.13.45-.19.49-.1.19-.1.33q-.02.34.17-.11c.1-.21.3-.8.48-1.32m-31.44-.34q-.17-.17-.07.07.09.2.15.15.05-.07-.08-.22m23.57-.2q.06-.12.01-.13c-.03 0-.1.06-.13.12q-.06.12-.02.13.07-.01.14-.13zm-23.5-.44c-.2-.1-.38-.16-.42-.12-.03.03.07.12.23.18.45.18.57.14.18-.06zm22.8.1a.1.1 0 0 0-.17 0q-.05.09.08.09.15 0 .08-.08zm.36-.11a.1.1 0 0 0-.17 0q-.05.07.08.08.15-.01.1-.08m8.77-1.2c.22-1.33.1-3.37-.3-4.62-.56-1.77-1.74-4.42-1.45-3.27.04.2.27.7.5 1.13.21.43.4.85.4.94a12 12 0 0 1 .73 5.77c-.22.88-.25 1.1-.15 1.04.06-.04.18-.48.27-.98m-1.97-8.76c-.17-.44-.35-.53-.25-.11.07.28.28.6.35.54.02-.03-.02-.22-.1-.43m-.7-1.61c-.2-.43-.36-.72-.36-.64 0 .2.6 1.54.67 1.47.03-.03-.1-.4-.3-.83zm-.73-1.9q-.62-1.9-.27-.3c.1.45.24.85.3.9.07.04.08.14.03.22q-.1.16.04.07.13-.07.14.06t.05.1c.03-.03-.1-.5-.29-1.06zM46.39 29l-.23-.52c-.94-2.2-1.37-3.02-1.46-2.85-.1.18.15.77.48 1.13.1.09.15.24.15.34q.01.16.13.17.1.02.12.17c0 .2.7 1.65.8 1.65q.05 0 .01-.1zm-36.5-.84q-.08-.07-.08.08 0 .14.08.08a.1.1 0 0 0 0-.16m.6-1.7q-.07-.05-.08.08.01.14.08.08a.1.1 0 0 0 0-.16m.25-.6q-.08-.07-.08.08 0 .13.08.08a.1.1 0 0 0 0-.17zm23.86-.03c-.1-.08-.7-.27-1.45-.45-.5-.13.21.23.8.39.66.18.8.2.65.06m1.03-.01q-.02-.12-.18-.05t-.18.12q.02.04.18.05.16-.01.18-.12m-16.18-.18a4.5 4.5 0 0 1-2.18-1.22 4 4 0 0 0-.62-.52c-.1.1 1.44 1.46 1.96 1.73.2.1.6.18.9.17.54 0 .54 0-.06-.16m17.68-.14c.32-.11.63-.3.7-.46q.23-.36-.09-.05c-.13.1-.47.3-.77.44q-1 .46.16.07m-14.47.02q-.01-.06-.14-.14t-.05.05c.08.14.2.19.2.09M21.58 25c.12-.11.22-.3.22-.4q.02-.19-.3.1c-.18.18-.46.38-.64.46-.33.16-.33.16.08.1.23-.04.52-.15.64-.26m1.4.24a.1.1 0 0 0-.17 0q-.05.07.08.08.15-.01.08-.08zm11.86-.12a4 4 0 0 1-.7-.5q-.34-.34-.33-.13c0 .25.48.68.84.74.54.1.56.08.2-.11m3.94.08a.12.12 0 0 0-.12-.12.12.12 0 0 0-.13.12q.01.1.13.12.1-.02.12-.12m7.95-1.1c.06-.28.06-.3-.1-.05-.22.3-.34.88-.24 1.14q.08.16.17-.3zm-37.4.9q.14-.2.02-.13c-.16.1-.28-.17-.28-.67 0-.3-.15-.52-.66-1.03-.36-.37-.7-.63-.76-.6s-.48-.22-.93-.56c-.72-.55-.86-.72-1.06-1.3a4 4 0 0 1-.23-.91c0-.14-.04-.3-.09-.35a.4.4 0 0 1-.1-.17c-.12-1.04-.5-2.21-.77-2.4a2 2 0 0 1-.32-.47c-.1-.23-.34-.56-.5-.73-.18-.17-.28-.34-.24-.38s-.03-.23-.16-.41c-.14-.2-.24-.4-.24-.46 0-.07-.08-.28-.18-.47-.37-.73-.9-1.97-.9-2.1 0-.06-.17-.68-.36-1.36a13 13 0 0 1-.45-5.9c.33-1.56 1.05-2.16 2.47-2.04.42.03.83.12.9.2a.6.6 0 0 0 .34.13c.12 0 .55.1.97.24 1 .32 1.22.25.3-.1C3.05 1.94 1.56 2.3 1 4.2c-.25.76-.24 3.4 0 4.82a21.5 21.5 0 0 0 3.41 8.2c.25.39.44.9.58 1.64.28 1.47.63 2.5.95 2.79.15.14.8.59 1.46 1 1.25.8 1.42 1.02 1.6 2.04.04.28.1.5.12.5q.04-.01.2-.2zm29.27-.68q.55-.59-.04-.04c-.36.33-.45.43-.35.43.02 0 .2-.17.4-.4zm-26.9-.17q-.08-.06-.08.08t.08.08a.1.1 0 0 0 0-.16m11.15-.07q-.05-.14-.07.08 0 .2.06.16c.06-.04.05-.15.01-.24m-12.75.03q.06-.11.01-.12-.06 0-.13.12-.06.1-.02.12.07-.02.14-.12m7.88-.73c.2-.71.37-1.07.83-1.55.2-.21.32-.4.26-.4-.14 0-.66.44-.66.55 0 .04-.14.29-.3.55a2 2 0 0 0-.3.7q0 .65-.57.4-.33-.15-.45-.01-.14.12.13.12c.14 0 .3.06.34.13s.2.1.33.1c.2-.04.3-.2.4-.6zm4.84.05q.06-.16-.05-.11a.2.2 0 0 0-.12.19c0 .17.1.13.17-.08m25.6-.9c.74-.45 1.4-1 1.4-1.2 0-.06-.5.35-.68.58a.7.7 0 0 1-.45.17q-.3 0-.26.13c.03.08-.2.28-.5.44-.3.17-.62.4-.7.55-.1.22-.1.23.1.05.13-.1.62-.43 1.1-.71zm-28.26.42c.45-.46.01-1.26-.57-1.04-.4.16-.53.55-.28.93.22.34.57.38.85.1zm12.88-.02q-.08-.05-.08.09 0 .13.08.08a.1.1 0 0 0 0-.17m2.16-.08c.14-.21.16-.37.07-.6q-.2-.56-.8-.3c-.23.1-.3.23-.3.53 0 .65.7.9 1.03.37m-1.72-.71q.12-.4-.1-.04c-.2.26-.24.48-.07.38.05-.04.13-.2.17-.34m-11.44-.26c0-.02-.12-.14-.27-.27q-.4-.35-.04.04.32.39.31.23m11.85-.16a.1.1 0 0 0-.17 0q-.05.08.1.08.12 0 .07-.08m-12.6-.48a.1.1 0 0 0-.18 0q-.05.07.08.08.15-.01.1-.08m-.38-.12a.1.1 0 0 0-.16 0q-.05.07.08.08.15-.01.08-.08m29.44-1.56.25-1.27c.06-.3.06-.3-.12 0-.1.16-.18.5-.18.76 0 .25-.1.66-.2.9-.1.26-.2.65-.24.88-.04.43-.04.43.13.06.1-.2.25-.8.36-1.33m-15.13 1.43a.1.1 0 0 0-.16 0q-.06.08.08.09t.08-.1m10.06-.12a.1.1 0 0 0-.16 0q-.05.08.08.08.15 0 .08-.08m-21.3-.97c0-.08.07-.21.16-.3a5 5 0 0 0 .5-2.18l-.1-.4c-.04-.32-.23-.8-.3-.8q-.1-.02-.17-.23c-.07-.26-1.05-.74-1.54-.74-.19 0-.5.09-.68.19-.2.1-.44.18-.55.18a1 1 0 0 0-.47.24c-.15.13-.35.24-.43.24s-.27.2-.4.44q-.25.42-.4.34t-.08 0c.05.06-.03.27-.17.48s-.2.32-.1.27c.25-.16 1.34.38 1.34.68 0 .05-.12.1-.27.1a1 1 0 0 0-.46.13q-.23.15.08.08c.2-.05.47.16 1.17.88 1.15 1.17 1.57 1.33 2.36.86.28-.17.51-.38.51-.46m9.24.58a7 7 0 0 0 1.23-1.05c.88-.87.94-.95.7-1.04q-.54-.19.43-.6c.4-.2.58-.21.77-.11.46.24.31.02-.72-1.07a3 3 0 0 0-1.4-.94c-1.48-.53-2.25-.36-2.86.64-.35.59-.4.76-.4 1.59 0 .77.04 1.04.3 1.54.45.93 1.2 1.33 1.95 1.04m-21.59-.22q.23-.29-.04-.05l-.22.2q.01.15.26-.15m1.37.02q.06-.17-.05-.11t-.12.18c0 .18.1.14.17-.07m31 0q-.01-.04-.15-.13t-.05.06c.08.14.2.19.2.08m-33.69-.3c.62-.17.96-.55.86-.96l-.54-1.9a13 13 0 0 1-.6-3.08c-.15-1.73-.26-2-1.15-2.93a16 16 0 0 1-2-2.83 15 15 0 0 0-2.26-2.83c-.32-.28-.5-.5-.42-.5.34 0 2.24.98 3.17 1.63 2.55 1.8 3.8 3.52 5.28 7.28.31.8.65 1.62.75 1.8.2.37.2.37.42.08.13-.15.2-.31.14-.35-.13-.1-.16-.23-.3-1.46a7 7 0 0 0-.47-2.13 17 17 0 0 0-1.14-2.35 15 15 0 0 0-3.98-3.86c-2.1-1.36-4.74-2.1-5.4-1.52q-.7.63-.68 3.3c.01.9.08 1.9.16 2.25a11.6 11.6 0 0 0 3 5.8c1.35 1.55 1.36 1.56 1.4 1.86.03.14.1.33.17.42s.2.4.27.67c.08.28.22.59.32.68s.13.22.1.26q-.08.08.02.05c.07-.02.32.08.57.24.4.24 1.11.45 1.68.5.1 0 .38-.05.63-.12m36.17 0c.4-.08.83-.23.97-.35.13-.11.38-.3.56-.4.23-.15.4-.44.6-1.03.3-.91.81-1.78 1.52-2.52a10 10 0 0 0 1.97-2.78c1.02-2 1.3-3.22 1.3-5.83 0-1.73-.04-2-.27-2.5-.2-.46-.35-.6-.69-.7-1.1-.3-3.98.79-6.1 2.32-2.83 2.02-4.65 5.27-4.65 8.27 0 .77-.04 1.03-.14.96q-.12-.04.1.23c.11.17.26.27.32.22s.37-.83.7-1.72c1.52-4.06 2.82-5.9 5.42-7.65.95-.64 2.4-1.36 3-1.5.34-.08.33-.06-.2.38a15 15 0 0 0-2.58 3.39c-.49.89-1.07 1.7-1.9 2.6-.7.78-.82 1.1-.96 2.8-.1 1.2-.23 1.89-.68 3.38-.56 1.88-.56 1.88-.22 2.15.2.15.5.3.7.32.21.02.4.05.45.07.03 0 .4-.04.78-.12zm1.2-.12q.08-.1.02-.12-.06.02-.13.12-.06.11-.02.12.07 0 .14-.12zm-30.28-.2q-.08-.05-.09.08 0 .14.1.08a.1.1 0 0 0 0-.16m20.77.03q-.01-.06-.14-.14t-.05.05c.08.14.2.19.2.09zm3.96-.4a.1.1 0 0 0-.16 0q-.05.08.08.09.15-.01.08-.08zm-22.8-.6a.1.1 0 0 0-.16 0q-.05.07.08.08.15-.01.1-.08zm18.13-.2q-.18-.18-.07.07c.05.12.11.2.15.15.04-.03 0-.13-.08-.21zm-19-.2q.2-.23.17-.25-.08.01-.28.25c-.13.13-.2.24-.16.24.03 0 .16-.11.28-.24zm33.02-1.68c.36-.56.63-1.04.6-1.07s-.24.24-.46.59-.5.75-.6.88c-.13.14-.25.4-.3.6-.03.2-.03.3.02.2.04-.1.37-.65.74-1.2m-9.3.9q-.02-.06-.15-.15-.12-.07-.05.06c.08.14.2.19.2.08zm-.37-.61q-.01-.06-.14-.14t-.06.05c.1.14.2.19.2.09m-37.5-1.48a.1.1 0 0 0-.17 0q-.06.07.08.08.14-.01.08-.08m48.35-.9c.47-.93.51-1.06.24-.84-.1.08-.18.22-.18.3s-.14.4-.3.72c-.3.58-.35.68-.25.68.04 0 .25-.38.5-.85m.83-1.96c.48-1.37.78-2.48.98-3.67.24-1.4.34-3.1.2-3.1-.08 0-.13.4-.13.89 0 1.37-.58 4.37-.97 5.09a1 1 0 0 0-.12.45 1 1 0 0 1-.2.46c-.2.19-.23.32-.18.66.03.2.12.05.42-.78M37.5 9.19c.12-.13.2-.24.16-.24-.03 0-.16.1-.28.24q-.2.23-.16.24.08-.01.28-.24m-19.46-.05q-.01-.06-.14-.14-.12-.09-.05.05c.1.14.2.19.2.09zm20.92-.43q.06-.11.01-.12-.07 0-.13.12-.06.1-.02.12.07-.01.14-.12m.3-.18q-.01-.06-.14-.14-.12-.07-.05.06c.08.14.2.18.2.08zM13.86 7q.06-.11.01-.12-.06 0-.13.12-.06.11-.02.12.07 0 .14-.12m-.79-.41q-.01-.05-.19-.12-.16-.06-.1.05c.06.1.3.17.3.07m-.52-.28a.1.1 0 0 0-.17 0q-.05.08.08.08.15 0 .1-.08m30.3-.04q.05-.11 0-.12-.07 0-.13.12t-.02.12q.07 0 .14-.12m1.54-.7c.35-.2.9-.52 1.23-.73s.7-.4.8-.4.3-.07.44-.16c.14-.1.54-.3.9-.43l.9-.35a18 18 0 0 1 3.45-1c.28 0 .7.1.93.2.52.26 1.2 1.08 1.3 1.57.03.2.11.56.18.79.12.42.12.42.13.05.03-.97-.6-2.1-1.43-2.53-.82-.43-2.44-.12-5.09.96-1.96.8-5 2.36-4.6 2.36.13 0 .5-.15.86-.33M7.87 3.73a4 4 0 0 0-.6-.23c-.16 0 .77.47.95.47.1 0-.06-.1-.35-.24M7.1 3.4a.1.1 0 0 0-.16 0q-.06.08.08.08t.08-.08m19.68 40.94a5.5 5.5 0 0 1-2.5-1.3 5 5 0 0 1-1.2-2.26c-.07-.36-.29-.7-.84-1.28a22 22 0 0 1-4.38-7.33c-.22-.6-.22-.6-.64-.12-.23.26-.38.37-.34.25.05-.12.08-.3.08-.38 0-.1.14-.33.31-.54.41-.5 1.1-.52 1.6-.07.33.3.33.3-.13.22-.45-.07-.47-.06-.39.22a10 10 0 0 0 1.74 3.02 5.2 5.2 0 0 0 2.94 1.76c1.6.34 2.9-.07 4.16-1.3.72-.7.72-.7 1.26-.1.62.7 1.7 1.27 2.73 1.46 2.3.42 4.67-1.24 6-4.22.37-.86.36-.92-.15-.82-.25.04-.43.03-.43-.05 0-.24.56-.5 1.11-.5.48 0 .62.06.83.33.13.17.25.46.25.63 0 .3 0 .3-.25.04-.4-.44-.45-.4-1.04 1.13a20 20 0 0 1-3.72 6.08c-.77.84-.93 1.08-1.05 1.63-.54 2.52-3.05 4-5.95 3.5m-2.35-3.63c-.18-1.18-.34-1.82-.44-1.82-.5 0 .83 4.43.44 1.82m2.6-7.9c-2.03-.3-3.6-1.5-3.88-3-.26-1.36.41-2.2 2.17-2.67 3.08-.85 6.61-.04 7.17 1.64.28.85-.12 1.98-.97 2.75a5.6 5.6 0 0 1-4.5 1.29zm-2.26-4.1c.24-.37 2.34-1.08 3.34-1.11.36-.01.32-.03-.24-.13-1.1-.18-2.88.17-3.44.68q-.54.53-.1 1.16c.2.3.2.3.28-.07.04-.2.11-.44.16-.52m10.26 3.03q0-.12.12-.13.11.01.12.13 0 .1-.12.12a.12.12 0 0 1-.12-.12" style="fill:#f55c63"/>
    <path d="M14.6 70.05c-2.23-.5-2.84-1.22-2.96-3.47-.05-1.14-.1-1.31-.44-1.86L10 62.78a31 31 0 0 1-2.55-5.2 11 11 0 0 1-.65-4.6c.1-2.23.32-3.07 1.9-6.86 1.32-3.2 1.83-4.7 2.06-6.13.17-1.07.17-1.08-.18-1.16-.26-.07-.3-.14-.3-.61 0-.38-.05-.53-.17-.53q-.17.01-.24.1c-.04.06-.18.14-.32.18-.24.06-.25.02-.2-.6.06-.63-.09-.9-.36-.66-.06.05-.25.13-.44.18-.38.09-.39.06-.18-.93.18-.88.07-1-.74-.75-.3.1-.6.12-.66.06-.05-.05 0-.3.1-.57.12-.26.25-.67.3-.92.1-.44.08-.46-.26-.46-.19 0-.34-.05-.34-.1s.25-.68.55-1.37c.74-1.67.73-1.6.34-1.8-.33-.14-.33-.14.25-.7s.58-.55.16-.72c-.43-.18-.43-.18.46-1.06.87-.85 1.16-1.3.7-1.06-.33.17-1.07.28-1.3.2-.27-.11-.25-.4.04-.48.23-.07.7-.67.53-.67-.06 0-.23-.1-.4-.24-.3-.23-.3-.23-.03-.52.28-.3.28-.3.02-.62a8 8 0 0 0-1.3-1.04A10 10 0 0 1 5.33 22c-.4-.46-.8-1.55-.94-2.57-.13-.98-.3-1.37-1.1-2.6A20.5 20.5 0 0 1 .1 7.49a9 9 0 0 1 .21-3.57 3.3 3.3 0 0 1 1.97-2.13c1.5-.4 4.3.39 8.12 2.3 3.76 2.2 6.14 3.39 8.44 4.8.46.62.91 1.17 1 1.2a5 5 0 0 0 1.4-.3c1.7-.5 2.74-.68 4.95-.85 3.02-.23 6.33.14 8.46.94.44.16.9.26 1.05.23.16-.04.5-.45.88-1.03.68-1.06 1.26-1.63 1.33-1.3.05.29.3.24.62-.1.3-.3.61-.4.61-.2 0 .07.48-.18 1.06-.53 4.7-2.88 7.84-4.38 10.66-5.1 2.05-.5 3.56.09 4.22 1.67.35.85.5 2.52.33 4.16-.64 6.85-3.54 8.38-4.3 12-.49 2.28-.74 2.62-2.77 3.83-.93.56-1.18.95-.82 1.27.3.28.3.4-.07.56-.42.2-.38.38.15.8.45.37.45.37.1.5q-.34.14-.78.02c-.57-.16-.63-.16-.63.02 0 .09.4.52.87.97.87.82.87.82.47.98s-.4.17.1.72.5.55.24.72c-.27.18-.27.18.36 1.65.35.8.63 1.5.63 1.53s-.18.07-.4.07c-.48 0-.48 0 .03 1.3.3.78.2.89-.64.6-.73-.24-.82-.12-.6.8.1.4.15.78.13.83s-.25 0-.5-.08c-.6-.2-.7-.1-.6.7.06.57.06.57-.33.46-.52-.15-.63-.06-.58.47.03.36 0 .44-.2.48-.43.08-.47.22-.3 1.07.3 1.68 1.5 4.34 2.26 6.4 3.2 8.19.4 12.56-2.6 18.78-.08.16-.15.72-.15 1.36 0 2-.56 2.84-2.24 3.36a6.8 6.8 0 0 1-5.7-.88c-2.24-1.48-2.57-2.8-1.46-5.82.08-.23.25-.9.36-1.45.48-2.4.98-3.35 2.25-4.28 1.3-.95 1.33-.98.87-.76-.5.25-.49.12.1-.53.26-.3.48-.57.48-.61s.18-.28.4-.53q.9-1.04 1.17-1.53c.1-.16.3-.42.45-.58s.28-.4.28-.52.05-.24.11-.26c.15-.06.83-1.35 1.13-2.14.3-.76.35-2.6.1-3.04-.13-.26-.13-.26-.55.06-.23.17-.5.46-.57.63-.09.18-.28.38-.43.44-.15.07-.27.17-.27.23 0 .12-1.23 1.28-1.36 1.29-.05 0-.4.22-.79.48-.38.27-.74.44-.79.4-.05-.06.07-.57.27-1.15a9 9 0 0 0 .63-3.06c.03-.93-.06-1.1-.42-.85-1.33.93.4-1.78 2.18-3.4 2.33-2.13 4.26-4.36 4.87-5.64l.35-.71c.01-.03.15.04.3.14.3.19.3.19.24-.83a4 4 0 0 1 .01-1.02c.04 0 .34.13.67.3s.63.3.67.3-.2-.58-.53-1.3a10 10 0 0 1-.55-1.34c.03-.02.22.05.43.16s.42.18.47.16c-.14-2.2-2.15-2.58-3.45-3.92.02-.07.3-.12.6-.12.93 0 .92-.16-.07-1.16-.88-.9-1.18-1.13-1.58-1.28-.1-.04-.2-.15-.2-.24 0-.24-1.26-.22-1.89.03-.27.1-.6.2-.73.24-.22.06-.79.78-.79 1 0 .06.14.14.31.19.5.12.22.3-.46.3-.7 0-1.9.26-1.9.4q-.01.09-.13.1c-.07 0-.28.1-.46.23a2 2 0 0 1-.7.32c-.38.07-.6-.1-1.8-1.3l-.42-.38-.66-.6c-.2-.2-.43-.34-.52-.34a3 3 0 0 1-1.23-.65 3 3 0 0 0-.6-.48c-.28-.2-.55-.45-.59-.58a2 2 0 0 0-.35-.51c-.55-.55-1.16-3.37-1.15-5.28 0-.51.1-1.55.2-2.32.14-.9.2-2.08.2-3.31 0-1.8-.03-1.94-.28-2.2-.35-.37-.22-.6.28-.5.21.03.7.07 1.08.09.38 0 .7.07.7.13s.2.1.45.08a8 8 0 0 1 2.5.46c.14.02.3.09.37.15.17.14 1.53.53 1.6.46.11-.11-2.42-.94-3.62-1.2a32 32 0 0 0-9.46-.27c-6.04 2.2-5.3 1.39-.65.69 1.28-.42 2.87-.46 3.4-.52.53-.07.98-.1 1.01-.07s-.07.32-.23.64c-.26.53-.28.72-.25 2.03.01.8.1 1.67.17 1.94s.15.76.16 1.1l.12 2.27c.1 1.64-.06 3.4-.32 3.56-.06.03-.1.18-.1.3 0 .3-.37 1.43-.55 1.68-.07.09-.46.5-.88.92s-.76.8-.76.87c0 .05-.36.32-.8.58-.43.27-1.2.89-1.69 1.37-.53.52-.96.85-1.04.8q-.12-.07-.06.05c.1.15-.47.63-.73.63-.2 0-1.37-.57-1.64-.81a3 3 0 0 0-1.16-.3q-2.66-.28-1.35-.83c.36-.15.36-.15.08-.45-.63-.68-2.32-1.14-2.8-.76l-.5.42c-.19.17-.39.3-.44.3a7 7 0 0 0-1.57 1.6c0 .26.25.47.57.47.43 0 .33.3-.17.53-.25.1-.64.3-.86.45q-.69.44-.4-.12.13-.23.03-.25c-.1 0-1.35 3-1.35 3.25q.01.12.42-.05c.24-.1.43-.12.43-.06s-.19.54-.4 1.06c-.24.52-.46 1.07-.5 1.2-.08.28-.08.28.4.04.85-.4.9-.37.8.7-.09.98-.12.94.46.7q.15-.05.37.52a7 7 0 0 0 .93 1.48c.45.55.73 1.02.74 1.2q-.02.41.1.08c.1-.23.1-.23.24.03.08.15.78.89 1.56 1.64l2.1 2.03c1.25 1.25 2.35 3.2 1.56 2.78-.5-.27-.62-.08-.54.95.07.86.22 1.75.4 2.2.51 1.44.61 1.76.55 1.85-.03.06-.2-.03-.37-.2s-.42-.3-.56-.3a.7.7 0 0 1-.44-.2 19 19 0 0 1-2.27-2.1c-.94-1.01-.94-1.01-1.1-.66-.16.4-.2 2.54-.04 2.64.06.04.2.37.32.74s.26.7.32.74c.05.03.18.24.28.45a25 25 0 0 0 2.7 3.87c.5.64.82 1.14.75 1.19-.07.04.26.36.74.72.47.35 1.05.9 1.27 1.2.4.52 1 2.15 1.2 3.17.05.23.33 1.14.62 2.02.35 1.02.54 1.8.54 2.19 0 2.46-4.05 4.82-7.1 4.14zm1.95-.64c.04-.04-.04-.47-.18-.95a10 10 0 0 1-.47-2.48c.04-.04.12.15.2.4.06.26.34 1 .6 1.68.55 1.37.6 1.4 1.61.9.5-.22.56-.3.63-.75.1-.58-.1-2.2-.26-2.43-.14-.18-.29-.57-.2-.57.14 0 .61 1.14.83 2.04.25 1 .25 1 .65.6 1.13-1.1 1.27-2 .57-3.7l-.56-1.36c-.08-.23-.2-.31-.49-.33-.2-.02-.5-.12-.67-.22-.4-.27-1.77-.36-2.78-.2-1.49.26-2.39.6-3.26 1.26-.59.45-.88.58-.73.34q.05-.11-.08-.06c-.1.03-.25-.1-.36-.28l-.7-1.15c-.77-1.26-1.8-3.3-1.88-3.75a4 4 0 0 0-.3-.85c-.14-.25-.37-1-.5-1.7a10 10 0 0 1-.2-2.95c.06-1.72.15-2.18.76-3.8.16-.4.3-.82.3-.9a57 57 0 0 0 1.81-4.78c.45-1.27.54-1.64.42-1.74s-.2.03-.36.55c-.1.38-.6 1.7-1.1 2.95a54 54 0 0 0-1.93 5c-.37 1.2-.58 3-.49 4 .25 2.5 1.58 5.75 3.74 9.1 1 1.5 1 1.5 1.06 3.06.07 1.47.1 1.56.43 1.98.4.48 1.2 1 1.33.86a4 4 0 0 0-.17-1.15c-.15-.6-.26-1.2-.26-1.35 0-.44.2-.18.3.37.11.77.85 2.27 1.17 2.4.3.13 1.38.1 1.52-.03zm24.52.05c.13 0 .83-1.33 1.1-2.1.2-.54.23-.58.24-.28 0 .2-.1.73-.26 1.18-.15.46-.23.86-.19.9.21.2 1.41-.56 1.7-1.08.06-.14.16-.94.2-1.77 1.78-19.37.57-1.47.25-2.1-.64-1.28-3.14-2.02-3.7-2.14a6 6 0 0 0-3.57.28c-.37.18-.7.32-.73.3-.03 0-.27.52-.53 1.18-.62 1.57-.66 2.43-.17 3.18.2.28.52.68.73.88.4.38.4.38.5-.03.21-.93.7-2.4.81-2.47q.12-.06.06.2a8 8 0 0 0-.3 2.24c0 .86 0 .86.5 1.1 1.01.5 1.28.48 1.47-.14.04-.13.26-.76.5-1.4.35-.95.41-1.05.35-.6a7 7 0 0 1-.49 1.9c-.26.57-.15.74.53.8a4 4 0 0 0 1-.03m5.54-22.27c.04.2.6.66.5 1.13-1.5 7.4-1.56-5.42-.5-1.13m-.2-.87c-.16-.44-.37-.53-.27-.11.07.29.28.6.35.53.03-.02 0-.21-.09-.42zm-.52-1.2A26 26 0 0 1 44.72 42q-.01-.17-.1-.24c-.15-.1.23 1.55.37 1.64q.1.1.03.23-.1.16.04.07.13-.07.22.26c.13.5.65 1.65.73 1.57.03-.03-.02-.22-.12-.42zm-36-16.97q-.09-.07-.09.08 0 .14.08.08a.1.1 0 0 0 0-.16m.6-1.7q-.08-.05-.09.08.01.14.08.08a.1.1 0 0 0 0-.16m.24-.6q-.08-.07-.08.08 0 .13.08.08a.1.1 0 0 0 0-.17zm6.53-1.44a4 4 0 0 0-.62-.52c4.21 1.36 3.77 3.45.62.52m-7.97.65q.14-.23.04-.18c-.15.1-.26-.2-.26-.68 0-.3-.15-.52-.66-1.03-.36-.37-.7-.63-.76-.6s-.48-.22-.93-.56c-.72-.55-.86-.72-1.06-1.3a4 4 0 0 1-.23-.91c0-.15-.04-.3-.09-.35a.4.4 0 0 1-.1-.17c-.12-1.04-.5-2.21-.77-2.4a2 2 0 0 1-.32-.47c-.1-.23-.34-.56-.5-.73-.18-.17-.28-.34-.24-.38s-.03-.23-.16-.41c-.14-.2-.24-.4-.24-.46 0-.07-.08-.28-.18-.47-.37-.73-.9-1.97-.9-2.1 0-.06-.17-.68-.36-1.36a13 13 0 0 1-.45-5.9c.33-1.56 1.05-2.16 2.47-2.04.42.03.83.12.9.2a.6.6 0 0 0 .34.13c.12 0 .55.1.97.24 1 .32 1.22.25.3-.1-2.93-1.04-4.39-.8-5.03.89a11 11 0 0 0-.24 3.7 20 20 0 0 0 3.4 9.3c.46.7.6 1.07.77 1.94.47 2.48.6 2.68 2.55 3.9 1.15.74 1.4 1.09 1.44 2.04.02.58.07.63.3.26M21.56 25c.2-.18.4-.66.28-.66-.03 0-.18.15-.33.33s-.47.4-.7.48c-.4.16-.4.16.07.1.25-.03.56-.14.68-.25m13.52.19c-.04-.07-.15-.12-.25-.12s-.36-.17-.6-.38c-.47-.42-.62-.2-.15.22.34.32 1.17.55 1 .28M11.7 24.15q-.08-.06-.08.08t.08.08a.1.1 0 0 0 0-.16m-1.6-.04q.06-.11.01-.12-.06 0-.13.12-.06.1-.02.12.07-.02.14-.12m10.06-1.16c.26-.27.23-.7-.06-.97-.5-.46-1.18.26-.8.86.23.34.58.38.86.1zm15.03-.08c.25-.35.24-.5-.03-.83-.2-.26-.26-.27-.6-.12a.63.63 0 0 0 .23 1.22c.12 0 .3-.12.4-.27M24 19.9a.5.5 0 0 1 .15-.3 5 5 0 0 0 .5-2.18l-.1-.4c-.04-.32-.23-.8-.3-.8q-.1-.02-.17-.23c-.07-.26-1.05-.74-1.54-.74-.19 0-.5.09-.68.19-.2.1-.44.18-.55.18a1 1 0 0 0-.47.24c-.15.13-.35.24-.43.24s-.27.2-.4.44q-.25.42-.4.34t-.08 0c.05.06-.03.27-.17.48s-.2.32-.1.27c1.93.8.3.28 1.86 1.87 1.15 1.17 1.57 1.33 2.36.86.28-.17.51-.38.51-.46zm9.23.58a7 7 0 0 0 1.23-1.05c.92-.9.94-.95.67-1.05-.28-.1-.28-.11-.04-.3.48-.37 1.02-.54 1.27-.4.46.24.3.02-.72-1.07a3 3 0 0 0-1.4-.94c-1.48-.53-2.25-.36-2.86.64-.35.59-.4.76-.4 1.59 0 .77.04 1.04.3 1.54.46.93 1.2 1.33 1.95 1.04m-21.59-.22q.23-.29-.04-.05l-.22.2q.01.15.26-.15m1.37.02q.06-.17-.05-.11t-.12.18c0 .18.1.14.17-.07m-2.14-.5c.18-.13.35-.36.37-.5s-.2-1.08-.5-2.08a12 12 0 0 1-.68-3.24c-.06-.8-.16-1.57-.23-1.74a7 7 0 0 0-.87-1.15 21 21 0 0 1-1.6-2.21 21 21 0 0 0-1.68-2.43c-.07-.08-.1-.2-.05-.27q.05-.11-.03-.1c-.06.03-.4-.22-.77-.54-.66-.58-.66-.58-.17-.4q1.26.43 2.82 1.56c2.44 1.75 3.7 3.5 5.11 7.05.35.86.71 1.73.82 1.93.2.37.2.37.42.08.13-.15.2-.31.14-.35-.13-.1-.16-.23-.3-1.46a7 7 0 0 0-.47-2.13 17 17 0 0 0-1.14-2.35 15 15 0 0 0-3.98-3.86c-2.1-1.36-4.74-2.1-5.4-1.52q-.7.63-.68 3.3c.01.9.08 1.9.16 2.25a11.6 11.6 0 0 0 3 5.8c1.35 1.55 1.36 1.56 1.4 1.86.03.14.1.33.17.42s.2.39.27.66c.22.78.91 1.38 1.9 1.64.61.16 1.61.05 1.97-.22m35.95.16a2.5 2.5 0 0 0 1.8-1.76c.28-.9.82-1.77 1.52-2.5a10 10 0 0 0 1.97-2.78c1.02-2 1.3-3.22 1.3-5.83 0-1.73-.04-2-.27-2.5-.2-.46-.35-.6-.69-.7-1.1-.3-3.98.79-6.1 2.32-2.83 2.02-4.65 5.27-4.65 8.27 0 .74-.04 1.03-.14.97-.07-.05-.03.07.1.25.18.3.22.3.35.13.08-.1.4-.9.72-1.74 1.1-2.95 2.18-4.82 3.6-6.17a14 14 0 0 1 4.24-2.7c.65-.24.65-.24.22.16-.75.7-2.55 3.1-2.55 3.4 0 .18-.9 1.45-1.67 2.34-.92 1.07-1.1 1.5-1.12 2.58 0 1.09-.19 2.1-.73 3.9-.56 1.88-.55 1.96.14 2.3.5.27 1.21.28 1.96.06m-42.5-4.52a.1.1 0 0 0-.17 0q-.06.07.08.08.14-.01.08-.08m50.42-8.56c.06-.75.04-1.06-.05-1.06q-.14 0-.14.88c0 1.37-.58 4.37-.97 5.09a1 1 0 0 0-.12.45c0 .14-.1.34-.22.46.03.83 1.28-3.1 1.5-5.82m-2.62-4.34c.28 0 .7.1.93.2.52.25 1.2 1.07 1.3 1.56.03.2.11.56.18.79.12.42.12.42.12-.06.02-1-.6-2.03-1.46-2.43-.95-.44-1.49-.06-1.07-.06M7.87 3.72a4 4 0 0 0-.6-.22c-.16 0 .77.47.95.47.1 0-.06-.1-.35-.24m-.78-.31a.1.1 0 0 0-.16 0q-.06.08.08.08t.08-.08m19.7 40.94a6 6 0 0 1-2.5-1.31 5 5 0 0 1-1.23-2.31c-.06-.4-.2-.63-.68-1.08-1.58-1.5-3.5-4.66-4.52-7.47-.22-.6-.22-.6-.6-.15-.4.46-.4.46-.3 0 .22-.98 1.17-1.35 1.9-.71.33.3.33.3-.13.22-.45-.07-.47-.06-.4.22.22.75 1.1 2.3 1.67 2.95 1.7 1.88 3.94 2.45 5.9 1.5.32-.15.9-.58 1.28-.97.72-.7.72-.7 1.26-.1a4.8 4.8 0 0 0 4.2 1.46c1.85-.4 3.43-1.83 4.45-4.08.46-1 .45-1.06-.07-.98-.23.04-.43.02-.43-.04 0-.23.57-.48 1.07-.48.63 0 1.12.4 1.11.93 0 .34 0 .34-.22.05q-.46-.63-.8.5c-.27.79-1.23 2.82-1.82 3.83a18 18 0 0 1-2.37 3.12c-.59.6-.72.83-.84 1.38-.52 2.52-3.13 4.07-5.93 3.52M33 38.67c.03-.4-10.06-2.23-9.9.5.16 2.94 2.57 5.5 5.48 4.54 4.16-1.4 4.42-4.95 4.42-5.04m-5.86-5.85c-2-.2-3.72-1.47-4-2.95q-.29-1.56 1.07-2.3c1.76-.95 5.25-1 7.05-.07.95.49 1.46 1.43 1.27 2.33-.42 1.95-2.78 3.26-5.4 2.99zm-2.38-4.1c.24-.4 2.35-1.08 3.4-1.11.5-.01.5-.01-.05-.13a7 7 0 0 0-2.78.22c-1.1.32-1.49.95-1.02 1.62.21.3.21.3.3-.07.03-.2.1-.44.15-.52m10.26 3.03q0-.12.12-.13.11.01.12.13 0 .1-.12.12a.12.12 0 0 1-.12-.12" style="fill:#fd9900"/>
    <path d="M14.6 70.05c-2.23-.5-2.84-1.22-2.96-3.47-.05-1.14-.1-1.31-.44-1.86L10 62.78a31 31 0 0 1-2.55-5.2 11 11 0 0 1-.65-4.6c.1-2.23.32-3.07 1.9-6.86 1.32-3.2 1.83-4.7 2.06-6.13.17-1.07.17-1.08-.18-1.16-.26-.07-.3-.14-.3-.61 0-.38-.05-.53-.17-.53q-.17.01-.24.1c-.04.06-.18.14-.32.18-.24.06-.25.02-.2-.6.06-.63-.09-.9-.36-.66-.06.05-.25.13-.44.18-.38.09-.39.06-.18-.93.18-.88.07-1-.74-.75-.3.1-.6.12-.66.06-.05-.05 0-.3.1-.57.12-.26.25-.67.3-.92.1-.44.08-.46-.26-.46-.19 0-.34-.05-.34-.1s.25-.68.55-1.37c.74-1.67.73-1.6.34-1.8-.33-.14-.33-.14.25-.7s.58-.55.16-.72c-.43-.18-.43-.18.46-1.06.87-.85 1.16-1.3.7-1.06-.33.17-1.07.28-1.3.2-.27-.11-.25-.4.04-.48.23-.07.7-.67.53-.67-.06 0-.23-.1-.4-.24-.3-.23-.3-.23-.03-.52.28-.3.28-.3.02-.62a8 8 0 0 0-1.3-1.04A10 10 0 0 1 5.33 22c-.4-.46-.8-1.55-.94-2.57-.13-.98-.3-1.37-1.1-2.6A20.5 20.5 0 0 1 .1 7.49a9 9 0 0 1 .21-3.57 3.3 3.3 0 0 1 1.97-2.13c1.5-.4 4.3.39 8.12 2.3 1.27.65 4.38 2.46 5.25 3.07.2.13.53.25.76.27.25.02.56.15.73.3.23.23.33.26.44.15q.13-.13.3-.14c.06 0 .5.5.96 1.14s.91 1.18 1 1.22c.1.03.72-.1 1.4-.3 1.7-.5 2.74-.7 4.95-.86 3.02-.23 6.33.14 8.46.94.44.16.9.26 1.05.23.16-.04.5-.45.88-1.03.68-1.06 1.26-1.63 1.33-1.3.05.29.3.24.62-.1.3-.3.61-.4.61-.2 0 .07.48-.18 1.06-.53 4.7-2.88 7.84-4.38 10.66-5.1 2.05-.5 3.56.09 4.22 1.67.35.85.5 2.52.33 4.16a21 21 0 0 1-3.38 9.54c-.53.8-.63 1.07-.93 2.47-.48 2.27-.73 2.6-2.76 3.82-.93.56-1.18.95-.82 1.27.3.28.3.4-.07.56-.42.2-.38.38.15.8.45.37.45.37.1.5q-.34.14-.78.02c-.57-.16-.63-.16-.63.02 0 .09.4.52.87.97.87.82.87.82.47.98s-.4.17.1.72.5.55.24.72c-.27.18-.27.18.36 1.65.35.8.63 1.5.63 1.53s-.18.07-.4.07c-.48 0-.48 0 .03 1.3.3.78.2.89-.64.6-.73-.24-.82-.12-.6.8.1.4.15.78.13.83s-.25 0-.5-.08c-.6-.2-.7-.1-.6.7.06.57.06.57-.33.46-.52-.15-.63-.06-.58.47.03.36 0 .44-.2.48-.43.08-.47.22-.3 1.07.3 1.68.88 3.33 2.26 6.4.9 2 1.6 3.95 1.8 5.04.27 1.36.18 3.8-.17 5.1a26 26 0 0 1-2.68 6.05c-.6 1-1.36 2.25-1.55 2.59-.09.16-.15.72-.15 1.36 0 2-.56 2.84-2.24 3.36a6.8 6.8 0 0 1-5.7-.88c-2.24-1.48-2.57-2.8-1.46-5.82.08-.23.25-.9.36-1.45.55-2.76 1.12-3.67 3.04-4.84.64-.4 1.63-.8 1.72-.7.03.04-.09.22-.26.4-.7.75-1.85 2.67-2.17 3.62-.43 1.32-.56 1.8-.5 1.87.04.09-.86.54-1.09.55-.07 0-.33.55-.6 1.22-.62 1.58-.66 2.44-.17 3.2.2.27.52.67.73.87.4.38.4.38.5-.03.21-.93.7-2.4.81-2.47q.12-.06.06.2a8 8 0 0 0-.3 2.24c0 .86 0 .86.5 1.1 1.01.5 1.28.48 1.47-.14.04-.13.26-.76.5-1.4.35-.95.41-1.05.35-.6a7 7 0 0 1-.49 1.9c-.27.58-.15.73.6.79.35.03.73.03.84 0 .23-.05.85-1.16 1.2-2.12.18-.54.22-.58.23-.28 0 .2-.1.73-.26 1.18-.15.46-.23.86-.19.9.21.2 1.41-.56 1.7-1.08.06-.14.16-.94.2-1.77.08-1.5.08-1.53.55-2.25 2.53-3.92 3.9-7.37 4.03-10.14.11-2.3-.15-3.32-1.9-7.3a54 54 0 0 1-1.9-4.78c-.06-.23-.2-.2-.85.27a36 36 0 0 1-3 2c-1.2.73-2.55 1.46-2.69 1.46q-.27-.02.67-1.42.72-1.07 1.9-2.16c2.34-2.13 4.27-4.36 4.88-5.64l.35-.71c.01-.03.15.04.3.14.3.19.3.19.24-.83a4 4 0 0 1 .01-1.02c.04 0 .34.13.67.3s.63.3.67.3-.2-.58-.53-1.3a10 10 0 0 1-.55-1.34c.03-.02.21.04.42.15s.42.2.48.2c.26 0-1.88-4.88-4.04-9.22-1.23-2.47-1.74-3.64-1.57-3.64.02 0 .14.17.25.39.1.2.45.73.76 1.14.3.4.7.95.86 1.19.27.38.41.58.82 1.1l.53.72c.25.34.73 1.74.96 1.94 1.34-1.73 3.9-3.93 4.35-6.12.32-1.62.17-1.93.91-3.1a21 21 0 0 0 3.11-8.11c.18-1.1.18-3.61 0-4.27a3 3 0 0 0-1.37-1.68q-1.44-.66-6.08 1.4a40 40 0 0 0-5.38 2.94c-.95.6-2.3 1.32-2.97 1.6-.87.38-1.35.66-1.58.94a4 4 0 0 0-.8 1.4c0 .05.07-.06.17-.25.2-.33.2-.33.55-.08.4.3 1.43.6 2 .6s1.44-.66 3.07-2.34c1.52-1.55 2.12-2.02 1.25-.96a13 13 0 0 0-2.2 4.47 5 5 0 0 0 .3 3.15c.42.72.43.7 1.2-1.38 1.1-2.95 2.2-4.82 3.6-6.17a14 14 0 0 1 4.25-2.7c.65-.24.65-.24.22.16-.75.7-2.55 3.1-2.55 3.4 0 .18-.9 1.45-1.67 2.34-.92 1.07-1.1 1.5-1.12 2.58 0 1.09-.19 2.1-.73 3.9-.36 1.22-.48 1.77-.4 1.9.2.3.91.62 1.45.62.62 0 1.67-.3 1.87-.54.08-.1.2-.18.28-.18.25 0-.82.97-1.35 1.23-.66.32-1.76.26-2.3-.12-.38-.27-1.24-1.47-2.1-2.92a32 32 0 0 0-1.35-2.17 3 3 0 0 1-.34-.62c0-.18-1.44-1.6-2.48-2.44a7 7 0 0 0-2.67-1.4 19 19 0 0 0-5.93-1.27 22.5 22.5 0 0 0-9.32 1.27c-1.76.67-2.29 1-3.42 2.18a15 15 0 0 0-2.47 3.08c-.3.68-1.9 3.19-2.38 3.75-.23.27-.6.58-.84.68-.94.45-2.22.1-3.1-.83-.43-.45-.43-.45.24-.11 1.26.64 3 .4 3.13-.42.02-.14-.2-1.07-.5-2.07a12 12 0 0 1-.68-3.24c-.06-.8-.16-1.57-.23-1.74a7 7 0 0 0-.87-1.15 21 21 0 0 1-1.6-2.21 21 21 0 0 0-1.68-2.43c-.07-.08-.1-.2-.05-.27q.05-.11-.03-.1c-.06.03-.4-.22-.77-.54-.66-.58-.66-.58-.17-.4q1.26.43 2.82 1.56c2.44 1.75 3.7 3.5 5.11 7.05 1 2.5 1.04 2.55 1.47 1.6.41-.9.24-3.26-.34-4.72a17 17 0 0 0-1.74-2.88q-1.03-1.31 1.81 1.5c1 .97 1.96 1.83 2.14 1.9.23.09.47.08.83-.02l.72-.18c.12-.02.43-.18.7-.34s.53-.3.6-.3c.13 0-.07-.42-.43-.87-.13-.17-.68-.5-1.23-.74-.92-.4-2.64-1.36-4.52-2.53a34 34 0 0 0-7.83-3.52C2.8 2.1 1.6 2.52 1.06 3.92.81 4.59.7 6.28.83 7.62a20 20 0 0 0 3.4 9.3c.46.7.6 1.07.77 1.94.47 2.48.6 2.68 2.55 3.9 1.15.74 1.4 1.09 1.44 2.04 0 .29.05.52.08.5.05 0 .58-.63 2.24-2.72.34-.42.94-1.23 1.34-1.8l.87-1.25c.2-.3-.3 1.04-.8 2.1l-.62 1.32c-.22.52-1.03 2.18-1.2 2.49-.47.78-2.8 6.35-2.8 6.65q0 .13.42-.05c.24-.1.43-.12.43-.06s-.19.54-.4 1.06c-.24.52-.46 1.07-.5 1.2-.08.28-.08.28.4.04.85-.4.9-.37.8.7-.09.98-.12.94.46.7q.15-.05.37.52c.12.32.55.97.93 1.48 1.05 1.37.92 1.28 2.64 2.95 2.4 2.28 2.76 2.68 3.34 3.55.31.46.57.97.57 1.12 0 .27-.05.26-1.19-.35a53 53 0 0 1-4.7-3c-.52-.4-.52-.4-.7.29-.12.37-.63 1.7-1.13 2.94a54 54 0 0 0-1.92 5c-.37 1.2-.58 3-.49 4 .25 2.5 1.58 5.75 3.74 9.1 1 1.5 1 1.5 1.06 3.06.07 1.47.1 1.56.43 1.98.4.48 1.2 1 1.33.86a4 4 0 0 0-.17-1.15c-.15-.6-.26-1.2-.26-1.35 0-.44.2-.18.3.38.03.28.27.93.52 1.43.4.8.5.92.9 1 .23.07.63.08.88.04.5-.1.5.02.1-1.53-.27-1.01-.46-2.27-.29-1.88l.66 1.7c.62 1.64.63 1.65 1.68 1.15.5-.23.56-.3.63-.76.1-.58-.1-2.2-.26-2.43-.14-.18-.29-.57-.2-.57.14 0 .61 1.14.83 2.04.25 1 .25 1 .65.6 1.13-1.1 1.27-2 .57-3.7l-.56-1.36c-.08-.22-.2-.31-.47-.33-.53-.04-.43-.4-.43-.7 0-.58-.6-3.6-.93-3.86-1.5-1.23.43 1.2-2.19-1.37-.4-.33-.4-.33-.03-.26 1.06.2 2.7 1.3 3.4 2.26.4.52 1 2.15 1.2 3.17.05.23.33 1.14.62 2.02.35 1.02.54 1.8.54 2.19 0 2.46-4.05 4.82-7.1 4.14zm12.2-25.7a6 6 0 0 1-2.52-1.31 5 5 0 0 1-1.22-2.31c-.06-.4-.2-.63-.68-1.08-1.58-1.5-3.5-4.66-4.52-7.47-.22-.6-.22-.6-.6-.15-.4.46-.4.46-.3 0 .22-.98 1.17-1.35 1.9-.71.33.3.33.3-.13.22-.45-.07-.47-.06-.4.22.22.75 1.1 2.3 1.67 2.95 1.7 1.88 3.94 2.45 5.9 1.5.32-.15.9-.58 1.28-.97.72-.7.72-.7 1.26-.1a4.8 4.8 0 0 0 4.2 1.46c1.85-.4 3.43-1.83 4.45-4.08.46-1 .45-1.06-.07-.98-.23.04-.43.02-.43-.04 0-.23.57-.48 1.07-.48.63 0 1.12.4 1.11.93 0 .34 0 .34-.22.05q-.46-.63-.8.5c-.27.79-1.23 2.82-1.82 3.83a18 18 0 0 1-2.37 3.12c-.59.6-.72.83-.84 1.38-.52 2.52-3.13 4.07-5.93 3.52m2.42-.7c1.72.1 2.6-2.6 2.7-4.4-.06-.85-3.66-1.18-3.88.39q-.15 1-.35.07c-.5-1.95-3.1-2.22-3.76-1.08-1.2 2.1 1.03 4.75 5.3 5.02zm-1.88-5.32q-46.5-62.2 0 0m1.92-.64q-49.38-61.24 0 0m-3.79-.32q-43.7-60.75 0 0m1.67-4.55c-2-.2-3.72-1.47-4-2.95q-.29-1.56 1.07-2.3c1.76-.95 5.25-1 7.05-.07.95.49 1.46 1.43 1.27 2.33-.42 1.95-2.78 3.26-5.4 2.99zm-2.38-4.1c.24-.4 2.35-1.08 3.4-1.11.5-.01.5-.01-.05-.13a7 7 0 0 0-2.78.22c-1.1.32-1.49.95-1.02 1.62.21.3.21.3.3-.07.03-.2.1-.44.15-.52m10.26 3.03q0-.12.12-.13.11.01.12.13 0 .1-.12.12a.12.12 0 0 1-.12-.12m-15.58-6.12a4.5 4.5 0 0 1-2.2-1.23c-.59-.58-.58-.85.02-.53.4.2.62.08.72-.45a2.8 2.8 0 0 1 1.8-2.17c.77-.26 1.4-.1 2.06.53.54.52.93 1.63.97 2.76.02.7.02.7-.89.98a4 4 0 0 1-2.48.1m2.12-.62c.2-.18.4-.66.28-.66-.03 0-.18.15-.33.33s-.47.4-.7.48c-.4.16-.4.16.07.1.25-.03.56-.14.68-.25m-1.4-2.06c.26-.27.23-.7-.06-.97-.5-.46-1.18.26-.8.86.23.34.58.38.86.1zm13.55 2.58c-.87-.25-.87-.25-.87-.93 0-1.66.7-2.91 1.9-3.4.48-.18 1.33-.02 1.88.38.43.3.9 1.09 1.07 1.83.16.64.2.65.8.4s.55.02-.1.62a4.2 4.2 0 0 1-2.24 1.2 4 4 0 0 1-2.44-.1m1.37-.33c-.04-.07-.15-.12-.25-.12s-.36-.17-.6-.38c-.47-.42-.62-.2-.15.22.34.32 1.17.55 1 .28m.11-2.33c.25-.35.24-.5-.03-.83-.2-.26-.26-.27-.6-.12a.63.63 0 0 0 .23 1.22c.12 0 .3-.12.4-.27m2.2-3.5a5 5 0 0 0-2.13-.96c-.4 0-.38-.21.03-.46.74-.45.87-.44 1.5.1A4 4 0 0 1 38 19.6c.1.32.12.33-.6-.24" style="fill:#d22544"/>
    <path d="M14.64 70.06c-1.37-.3-2.46-1.02-2.78-1.88a9 9 0 0 1-.23-1.7c-.09-1.33-.09-1.33-.89-2.54a27 27 0 0 1-3.5-7.13A10 10 0 0 1 6.8 54c-.1-2.33.22-3.93 1.33-6.51a90 90 0 0 0 1.75-4.24c.44-1.2.9-3.03.92-3.76.02-.6 0-.66-.25-.7-.23-.03-.27-.11-.27-.6 0-.6.06-.56-.72-.32-.22.07-.24.03-.2-.51.03-.33 0-.63-.07-.67-.06-.04-.32 0-.56.09-.52.17-.57.1-.4-.52.18-.62.17-1.1-.02-1.16-.08-.03-.4.02-.72.1-.3.08-.6.12-.63.08s.02-.26.12-.5.23-.67.28-.95c.1-.51.1-.52-.25-.52-.19 0-.34-.02-.34-.06s.27-.7.6-1.47c.34-.77.6-1.46.6-1.52s-.13-.16-.3-.23c-.32-.11-.32-.11.25-.67s.58-.56.11-.76c-.46-.21-.46-.21-.05-.47q.77-.48 1.33-1.41c.28-.47.28-.47 0-.3-.43.28-1.2.39-1.4.2-.15-.11-.1-.2.26-.56.44-.42.44-.42.1-.7-.32-.24-.32-.27-.14-.53.31-.45.04-.8-1.3-1.7A9 9 0 0 1 5.3 21.9a8 8 0 0 1-.96-2.87c-.12-.78-.23-1.03-.92-2.06A20 20 0 0 1 .06 6.28c0-2 .2-2.7 1.03-3.6.81-.84 1.4-1.07 2.55-.96 2.3.2 6.45 2 10.37 4.44 1.08.67 2.13 1.25 2.33 1.27s.53.16.74.3c.3.22.4.24.54.12.24-.2.36-.1 1.34 1.23.44.6.88 1.08.97 1.08.1 0 .6-.13 1.13-.3a25 25 0 0 1 8.76-.92c1.77.14 4.1.6 4.74.93.2.1.58.2.86.2.5.03.5 0 1.08-.82.74-1.06 1.43-1.78 1.43-1.48q-.02.45.7-.12c.26-.2.45-.27.48-.2.05.16.56-.12 2.84-1.51a39 39 0 0 1 5.74-2.98c.95-.44 1.7-.7 2.78-.98 1.92-.5 2.81-.4 3.74.42.73.64 1.02 1.28 1.2 2.65.46 3.47-1.1 8.94-3.52 12.3-.33.47-.48.88-.76 2.12-.19.84-.4 1.7-.48 1.9q-.35.88-2.06 1.96c-1.17.74-1.42 1.08-1.12 1.5.18.26.18.3-.08.49-.35.26-.25.66.25.9.43.24.44.29.04.44a1.3 1.3 0 0 1-.8-.01 1.4 1.4 0 0 0-.55-.08c-.15.16.6 1.04 1.37 1.62.35.26.35.26-.05.43-.4.18-.4.18.04.76.4.5.42.6.25.7-.29.15-.25.32.42 1.76.33.73.6 1.36.6 1.4 0 .05-.18.08-.4.08-.4 0-.42 0-.32.4.05.2.2.65.32.96s.18.6.13.65-.35 0-.67-.1c-.88-.28-.92-.2-.57 1.34.1.4.1.4-.42.2-.65-.26-.77-.12-.67.7.08.58.08.58-.26.46-.5-.2-.68-.07-.63.45.03.37 0 .46-.17.46-.44 0-.5.24-.35 1.18.25 1.4.8 2.97 2.1 5.96 2 4.6 2.24 5.52 2.13 8.05-.13 2.9-1.27 5.8-3.84 9.85-.8 1.24-.86 1.45-.87 2.7 0 1.36-.2 1.89-1 2.59-.58.5-1.42.8-2.7.96-.7.09-1.9-.1-2.82-.44A7 7 0 0 1 34.7 67c-.28-.52-.3-1.76-.02-2.6.34-1.07.67-2.27.94-3.43.5-2.1.97-2.86 2.45-3.84.82-.55 2.01-1.1 2.13-.97.03.03-.09.2-.26.4-.7.74-1.85 2.66-2.17 3.6-.43 1.33-.13 1.36-.5 1.88-.25.34-.9.58-1.04.7-.13.1-.38.4-.65 1.07-.35.9-.48 1.4-.49 1.95 0 .68.03.8.45 1.42.26.37.6.76.75.86.25.17.3.17.35 0a8 8 0 0 1 .8-2.65c.14-.13.12.07-.13 1.02-.06.24-.1.85-.1 1.36 0 .93 0 .93.5 1.17 1.02.49 1.28.46 1.47-.16.04-.13.26-.76.5-1.4.35-.95.41-1.05.35-.6a7 7 0 0 1-.49 1.9c-.1.22-.16.47-.12.57.06.17 1.3.36 1.6.24.2-.07.85-1.3 1.15-2.14.2-.54.23-.58.24-.28 0 .2-.12.73-.26 1.18-.15.46-.23.86-.19.9.2.2 1.41-.56 1.7-1.07.06-.14.16-.94.2-1.78.1-1.5.1-1.54.55-2.25q3.83-5.97 4.03-10.14c.11-2.3-.15-3.32-1.9-7.3a54 54 0 0 1-1.9-4.78c-.06-.23-.2-.2-.85.27a36 36 0 0 1-3 2c-1.2.73-2.55 1.46-2.69 1.46q-.27-.02.67-1.42.72-1.07 1.9-2.16c2.57-2.34 4.62-4.75 5.03-5.9.18-.52.2-.53.55-.28.26.17.26.17.2-.87-.04-.6-.02-1.02.04-1 .23.13 1.26.59 1.3.59s-.2-.6-.53-1.33a6 6 0 0 1-.5-1.33c.04 0 .22.08.38.18.7.4.7.42-.56-2.6a107 107 0 0 0-3-6.43c-1.24-2.47-1.75-3.64-1.58-3.64.02 0 .14.17.25.39.1.2.45.73.76 1.14a57 57 0 0 1 1.34 1.86l.43.56a7 7 0 0 0 1.4 1.63c.8.85-.18-.5 2.54-2.32 1.03-.63 1.31-1.43 1.68-3.28.32-1.62.3-1.55 1.04-2.71a21 21 0 0 0 3.11-8.12c.18-1.08.18-3.6 0-4.27a3 3 0 0 0-1.37-1.68q-1.44-.66-6.08 1.4a40 40 0 0 0-5.38 2.94c-.95.6-2.3 1.32-2.97 1.6-.87.38-1.38.64-1.58.94-.49.74-.62.7-.08 1.07.4.3 1.43.6 2 .6s1.44-.66 3.07-2.34c1.52-1.55 2.12-2.02 1.25-.96a13 13 0 0 0-2.2 4.47 5 5 0 0 0 .28 3.13c.18.3.37.55.43.55.1 0 .33-.53 1.05-2.48.9-2.47 2.02-4.3 3.43-5.62 1.13-1.07 3.05-2.3 3.31-2.13q.12.07.06-.04c-.04-.07.18-.24.52-.38.74-.32.83-.32.55-.01-.13.14-.3.2-.4.17q-.17-.06-.1.02c.04.05-.15.2-.43.33-.65.3-2.6 2.23-3.62 3.6-.42.56-.8 1.05-.85 1.09-.04.03-.22.3-.39.6-.3.53-.46 1.17-.64 2.49-.08.6-.08.6-.3.15-.14-.25-.29-.46-.35-.46-.1 0-.27.36-.5 1.16-.08.26-.3.78-.5 1.15-.37.68-.37.68.64 2.39.8 1.33 1.1 1.75 1.41 1.9.75.36 2.24.17 2.83-.36.13-.12.26-.18.3-.15.12.12-1.16 1.17-1.6 1.32-.6.2-1.65.07-2.09-.24-.37-.26-1.23-1.46-2.09-2.91a38 38 0 0 0-1.35-2.17 3 3 0 0 1-.34-.62c0-.18-1.44-1.6-2.48-2.44a7 7 0 0 0-2.67-1.4 19 19 0 0 0-5.93-1.27 22.5 22.5 0 0 0-9.32 1.27c-1.76.67-2.29 1-3.42 2.18a15 15 0 0 0-2.47 3.08c-.3.68-1.9 3.19-2.38 3.75-.23.27-.6.58-.84.69-.94.44-2.22.1-3.1-.84-.43-.45-.43-.45.24-.1.56.3.81.34 1.6.34 1.1 0 1.16-.04 2.02-1.44.34-.55.78-1.2.98-1.46.46-.58.46-.75 0-1.48-.2-.33-.47-.97-.6-1.43a5 5 0 0 0-.34-.94c-.05-.05-.2.18-.32.52a2 2 0 0 1-.25.57c-.02-.02-.1-.6-.18-1.3-.14-1.24-.14-1.24-1-2.35l-1.39-1.8c-.64-.85-3.03-3.25-3.25-3.25a3 3 0 0 1-.5-.3q-.96-.67.72.19A13 13 0 0 1 11.35 11c.2.37.7 1.46 1.1 2.43.4.96.81 1.97.95 2.23.24.47.24.47.56-.18.27-.54.32-.8.32-1.62 0-1.05-.24-2.43-.57-3.26a17 17 0 0 0-1.74-2.88q-1.03-1.31 1.8 1.5c1 .97 1.97 1.83 2.15 1.9.23.09.47.08.83-.02l.72-.18c.12-.02.43-.18.7-.34s.53-.3.6-.3c.13 0-.08-.42-.43-.87-.13-.17-.69-.5-1.23-.74-.92-.4-2.64-1.36-4.52-2.53a34 34 0 0 0-7.83-3.52c-1.96-.52-3.16-.1-3.7 1.3-.25.67-.36 2.36-.23 3.7a20 20 0 0 0 3.4 9.3c.46.7.6 1.07.77 1.94.47 2.48.6 2.68 2.55 3.9 1.15.74 1.4 1.09 1.44 2.04 0 .29.05.52.08.5.05 0 .58-.63 2.24-2.72.34-.42.94-1.23 1.34-1.8l.87-1.25c.2-.3-.3 1.04-.8 2.1l-.62 1.32c-.22.52-1.03 2.18-1.2 2.5a76 76 0 0 0-2.8 6.63q0 .14.36 0c.2-.08.4-.11.43-.07.04.04-.15.57-.42 1.18-.27.6-.5 1.17-.5 1.23s.22 0 .5-.13c.82-.42.87-.38.77.74-.08.99-.08.99.24.77.38-.24.34-.27.6.43.11.3.52.96.93 1.45a59 59 0 0 0 2.64 2.95c2.27 2.4 2.76 2.68 3.34 3.55.31.46.57.97.57 1.12 0 .27-.05.26-1.19-.35a53 53 0 0 1-4.72-3.01c-.5-.38-.5-.38-.64.13-.14.5-1.24 3.35-2.24 5.74q-1.58 3.8-1.34 6.37c.1 1 .52 2.77.9 3.75a40 40 0 0 0 2.84 5.33c1 1.53 1 1.53 1.06 3.08.07 1.47.1 1.56.43 1.98.4.48 1.2 1 1.33.86a4 4 0 0 0-.17-1.15c-.15-.6-.26-1.2-.26-1.35 0-.43.2-.2.3.36.03.28.26.93.5 1.45.43.94.44.96.96 1.03a3 3 0 0 0 .9 0c.44-.1.43 0 .03-1.52-.27-1.01-.45-2.27-.28-1.88l.65 1.7c.62 1.64.63 1.65 1.7 1.15.5-.23.55-.3.62-.76.1-.58-.1-2.2-.26-2.43-.14-.18-.29-.57-.2-.57.15 0 .7 1.35.83 2.08.1.47.18.87.2.89.1.08.55-.37.93-.9.77-1.05.72-1.57-.1-3.62-.65-1.6-1.85-1.05-1.9-1.73.14-1.44-1.38-4.4-2.49-5.4-.4-.33-.4-.33-.03-.26 1.06.2 2.7 1.3 3.4 2.26a11 11 0 0 1 1.2 3.17c.05.23.33 1.16.63 2.06.6 1.8.65 2.44.23 3.3-.49 1.03-2.16 2.33-3.56 2.77-.93.29-2.38.4-3.17.23zM26.8 44.35a6 6 0 0 1-2.5-1.31 5 5 0 0 1-1.23-2.3c-.06-.37-.24-.65-.82-1.25-1.79-1.86-3.05-3.97-4.39-7.36-.2-.52-.2-.52-.55-.2-.33.33-.35.33-.35.09 0-.14.14-.42.31-.63.41-.5 1.1-.52 1.6-.07.33.3.33.3-.12.22q-.47-.07-.46.08c0 .33 1 2.26 1.5 2.85a5.3 5.3 0 0 0 4.14 2.16 4 4 0 0 0 3.2-1.32c.78-.76.78-.76 1.32-.17a4.8 4.8 0 0 0 4.2 1.46c1.85-.4 3.43-1.83 4.45-4.08.46-1 .45-1.06-.08-.98q-.45.08-.38-.07c.07-.24.6-.45 1.1-.45.55 0 1.05.43 1.05.92 0 .33 0 .33-.32-.01-.37-.4-.4-.37-.78.74a30 30 0 0 1-2.2 4.38c-.6.9-1.17 1.6-1.93 2.4-.57.6-.7.83-.83 1.38-.52 2.52-3.14 4.07-5.93 3.52m2.83-1.4a3.7 3.7 0 0 0 1.87-1.78c.37-.76.62-2.06.62-3.23 0-.68-.09-.73-1.28-.74-1.6 0-2.47.6-2.74 1.9-.08.42-.2.73-.25.7a2 2 0 0 1-.17-.65c-.1-.73-.6-1.4-1.3-1.72a3.7 3.7 0 0 0-2.07-.15c-.56.08-.56.08-.56.66 0 1.64.48 3.4 1.13 4.1.37.4 1.14.87 1.72 1.06.7.23 2.41.14 3.03-.14zm-2.48-10.13c-2.24-.23-3.99-1.7-4.02-3.36-.04-1.5 1.05-2.26 3.7-2.58 2.2-.26 4.37.26 5.26 1.28 1.03 1.17.4 2.94-1.45 4q-1.49.87-3.5.66zm-2.55-3.5q-.01-.6.71-.96c.58-.3 2.27-.73 2.9-.75.45-.01.45-.01-.03-.13-1.02-.25-3.25.16-3.78.7-.32.3-.36.6-.14 1.07.17.38.34.4.34.06zm10.43 2.43q0-.12.12-.13.11.01.12.13 0 .1-.12.12a.12.12 0 0 1-.12-.12m-15.58-6.12a4.5 4.5 0 0 1-2.2-1.23c-.59-.58-.58-.85.02-.53.4.2.62.08.72-.45a2.8 2.8 0 0 1 1.8-2.17c.77-.26 1.4-.1 2.06.53.54.52.93 1.63.97 2.76.02.7.02.7-.89.98a4 4 0 0 1-2.48.1m1.92-.45c.17-.07.36-.3.43-.48.14-.4.02-.46-.2-.1-.1.14-.4.36-.67.48-.46.2-.48.23-.19.24.18 0 .47-.06.63-.14m-1.2-2.23c.36-.37.11-1.15-.37-1.15-.2 0-.66.43-.66.64 0 .27.37.7.6.7a.7.7 0 0 0 .43-.2zm13.55 2.58c-.87-.25-.87-.25-.87-.93 0-1.66.7-2.91 1.9-3.4.48-.18 1.33-.02 1.88.38.43.3.9 1.08 1.07 1.83.16.64.2.65.8.4s.55.02-.1.62a4.2 4.2 0 0 1-2.24 1.2 4 4 0 0 1-2.44-.1m1.37-.33c-.04-.07-.15-.12-.25-.12s-.36-.17-.6-.38c-.47-.42-.62-.2-.15.22.34.32 1.17.55 1 .28m.11-2.33c.25-.35.24-.5-.03-.83-.2-.26-.26-.27-.6-.12a.63.63 0 0 0 .23 1.22c.12 0 .3-.12.4-.27m2.2-3.5a5 5 0 0 0-2.13-.96c-.4 0-.38-.21.03-.46.74-.45.87-.44 1.5.1A4 4 0 0 1 38 19.6c.1.32.12.33-.6-.24" style="fill:#c84d11"/>
    <path d="M14.64 70.06c-1.37-.3-2.46-1.02-2.78-1.88a9 9 0 0 1-.23-1.7c-.09-1.33-.09-1.33-.89-2.54a27 27 0 0 1-3.5-7.13A10 10 0 0 1 6.8 54c-.1-2.33.22-3.93 1.33-6.51a90 90 0 0 0 1.75-4.24c.44-1.2.9-3.03.92-3.76.02-.6 0-.66-.25-.7-.23-.03-.27-.11-.27-.6 0-.6.06-.56-.72-.32-.22.07-.24.03-.2-.51.03-.33 0-.63-.07-.67-.06-.04-.32 0-.56.09-.52.17-.57.1-.4-.52.18-.62.17-1.1-.02-1.16-.08-.03-.4.02-.72.1-.3.08-.6.12-.63.08s.02-.26.12-.5.23-.67.28-.95c.1-.51.1-.52-.25-.52-.19 0-.34-.02-.34-.06s.27-.7.6-1.47c.34-.77.6-1.46.6-1.52s-.13-.16-.3-.23c-.32-.11-.32-.11.25-.67s.58-.56.11-.76c-.46-.21-.46-.21-.05-.47q.77-.48 1.33-1.41c.28-.47.28-.47 0-.3-.43.28-1.2.39-1.4.2-.15-.11-.1-.2.26-.56.44-.42.44-.42.1-.7-.32-.24-.32-.27-.14-.53.31-.45.04-.8-1.3-1.7A9 9 0 0 1 5.3 21.9a8 8 0 0 1-.96-2.87c-.12-.78-.23-1.03-.92-2.06A20 20 0 0 1 .06 6.28c0-2 .2-2.7 1.03-3.6.81-.84 1.4-1.07 2.55-.96 2.3.2 6.45 2 10.37 4.44 1.08.67 2.13 1.25 2.33 1.27s.53.16.74.3c.3.22.4.24.54.12.24-.2.36-.1 1.34 1.23.44.6.88 1.08.97 1.08.1 0 .6-.13 1.13-.3a25 25 0 0 1 8.76-.92c1.77.14 4.1.6 4.74.93.2.1.58.2.86.2.5.03.5 0 1.08-.82.74-1.06 1.43-1.78 1.43-1.48q-.02.45.7-.12c.26-.2.45-.27.48-.2.05.16.56-.12 2.84-1.51a39 39 0 0 1 5.74-2.98c.95-.44 1.7-.7 2.78-.98 1.92-.5 2.81-.4 3.74.42.73.64 1.02 1.28 1.2 2.65.46 3.47-1.1 8.94-3.52 12.3-.33.47-.48.88-.76 2.12-.19.84-.4 1.7-.48 1.9q-.35.88-2.06 1.96c-1.17.74-1.42 1.08-1.12 1.5.18.26.18.3-.08.49-.35.26-.25.66.25.9.43.24.44.29.04.44a1.3 1.3 0 0 1-.8-.01 1.4 1.4 0 0 0-.55-.08c-.15.16.6 1.04 1.37 1.62.35.26.35.26-.05.43-.4.18-.4.18.04.76.4.5.42.6.25.7-.29.15-.25.32.42 1.76.33.73.6 1.36.6 1.4 0 .05-.18.08-.4.08-.4 0-.42 0-.32.4.05.2.2.65.32.96s.18.6.13.65-.35 0-.67-.1c-.88-.28-.92-.2-.57 1.34.1.4.1.4-.42.2-.65-.26-.77-.12-.67.7.08.58.08.58-.26.46-.5-.2-.68-.07-.63.45.03.37 0 .46-.17.46-.44 0-.5.24-.35 1.18.25 1.4.8 2.97 2.1 5.96 2 4.6 2.24 5.52 2.13 8.05-.13 2.9-1.27 5.8-3.84 9.85-.8 1.24-.86 1.45-.87 2.7 0 1.36-.2 1.89-1 2.59-.58.5-1.42.8-2.7.96-.7.09-1.9-.1-2.82-.44A7 7 0 0 1 34.7 67c-.28-.52-.3-1.76-.02-2.6q.54-1.67.94-3.44.52-2.25 1.5-3.12c.62-.54 2.16-1.44 2.7-1.56.31-.08.23.03-.65.9-.9.9-1.72 2.07-2.4 3.4-.1.23-.4 1.02-.66 1.76-.25.74-.6 1.76-.79 2.26-.25.7-.3 1.03-.25 1.45.08.6.74 1.68 1.22 1.99.25.17.3.17.35 0a8 8 0 0 1 .8-2.65c.14-.13.12.07-.13 1.02-.06.24-.1.85-.1 1.36 0 .93 0 .93.5 1.17 1.02.49 1.28.46 1.47-.16.04-.13.26-.76.5-1.4.35-.95.41-1.05.35-.6a7 7 0 0 1-.49 1.9c-.1.22-.16.47-.12.57.06.17 1.3.36 1.6.24.2-.07.85-1.3 1.15-2.14.2-.54.23-.58.24-.28 0 .2-.12.73-.26 1.18-.15.46-.23.86-.19.9.2.2 1.41-.56 1.7-1.07.06-.14.16-.94.2-1.78.1-1.53.1-1.53.81-2.68a29 29 0 0 0 3.01-5.94c.61-1.74.8-2.75.82-4.18.01-2.1-.28-3.15-1.94-6.91-1.55-3.53-2.02-4.9-2.4-7.02-.16-.95-.16-.95.6-1.98a7 7 0 0 0 .93-1.5c.18-.53.2-.55.56-.3.26.18.26.18.2-.86-.04-.6-.02-1.02.04-1 .23.13 1.26.59 1.3.59s-.2-.6-.53-1.33a6 6 0 0 1-.5-1.33c.04 0 .22.08.38.18.17.1.37.17.44.18.11 0-.6-1.97-1.1-3.1a30 30 0 0 0-.9-2.1 31 31 0 0 1-.74-1.65c0-.05.34-.07.76-.06.76.06 1 .12 1.08-.67.08-.88.33-1.2 1.5-1.9 1.62-.97 1.8-1.27 2.35-3.82.2-.95.35-1.3 1-2.3a19.5 19.5 0 0 0 3.2-10.35c0-1.72 0-1.77-.37-2.48a2.6 2.6 0 0 0-1.73-1.46c-1.67-.31-7.39 2.15-11.88 5.1-.4.29-1.28.74-1.94 1.02-1.26.55-1.83 1-2.29 1.87-.4.78-.5.8-1.78.35a22.5 22.5 0 0 0-14.12.05c-.49.17-.96.28-1.06.24a4 4 0 0 1-.73-.92c-.56-.85-.58-.87-1.95-1.52a51 51 0 0 1-3.54-1.96c-4-2.42-8.22-4.2-9.97-4.2-1.2 0-1.8.4-2.33 1.55-.25.55-.28.77-.27 2.42.01 2.1.2 3.3.92 5.45.55 1.7 1.4 3.45 2.38 5 .57.88.74 1.27.86 1.94.08.45.26 1.23.4 1.7.3 1.03.67 1.4 2.2 2.36 1.08.67 1.32 1 1.4 1.87.05.66.05.66.94.66.9 0 .9 0 .82.33-.05.18-.26.7-.47 1.18a32 32 0 0 0-1.42 3.34c-.2.57-.44 1.18-.53 1.36-.28.55-.23.7.2.54.2-.07.38-.1.42-.06s-.15.57-.42 1.18c-.27.6-.5 1.17-.5 1.23s.22 0 .5-.13c.82-.42.87-.38.77.74-.08.99-.08.99.24.77.38-.24.34-.27.6.43.11.3.53.95.93 1.45s.73.96.73 1.05c0 .08-.1.7-.25 1.37a39 39 0 0 1-2.3 6.67c-1.13 2.72-1.53 4-1.7 5.57-.37 3.03.88 6.65 3.84 11.19.83 1.26.83 1.26.9 2.8.07 1.48.1 1.57.43 1.99.4.48 1.2 1 1.33.86a4 4 0 0 0-.17-1.15c-.15-.6-.26-1.2-.26-1.35 0-.43.2-.2.3.36.03.28.26.93.5 1.45.43.94.44.96.96 1.03a3 3 0 0 0 .9 0c.44-.1.43 0 .03-1.52-.27-1.01-.45-2.27-.28-1.88l.65 1.7c.62 1.64.63 1.65 1.7 1.15.5-.23.55-.3.62-.76.1-.58-.1-2.2-.26-2.43-.14-.18-.29-.57-.2-.57.15 0 .7 1.35.83 2.08l.21.9c.1.1.84-.71 1.16-1.26.45-.76.41-1.41-.15-2.76-.24-.6-.58-1.46-.74-1.93a14 14 0 0 0-2.37-4.3l-.95-1c-.59-.64-.62-.7-.3-.58 1.3.5 2.66 1.45 3.2 2.25.4.57.83 1.7 1.1 2.84.07.37.4 1.4.7 2.3.6 1.8.63 2.45.21 3.32-.49 1.02-2.16 2.32-3.56 2.76-.93.29-2.38.4-3.17.23zM26.8 44.35a6 6 0 0 1-2.5-1.31 5 5 0 0 1-1.23-2.3c-.06-.37-.24-.65-.82-1.25-1.79-1.86-3.05-3.97-4.39-7.36-.2-.52-.2-.52-.55-.2-.33.33-.35.33-.35.09 0-.14.14-.42.31-.63.41-.5 1.1-.52 1.6-.07.33.3.33.3-.12.22q-.47-.07-.46.08c0 .33 1 2.26 1.5 2.85a5.3 5.3 0 0 0 4.14 2.16 4 4 0 0 0 3.2-1.32c.78-.76.78-.76 1.32-.17a4.8 4.8 0 0 0 4.2 1.46c1.85-.4 3.43-1.83 4.45-4.08.46-1 .45-1.06-.08-.98q-.45.08-.38-.07c.07-.24.6-.45 1.1-.45.55 0 1.05.43 1.05.92 0 .33 0 .33-.32-.01-.37-.4-.4-.37-.78.74a30 30 0 0 1-2.2 4.38c-.6.9-1.17 1.6-1.93 2.4-.57.6-.7.83-.83 1.38-.52 2.52-3.14 4.07-5.93 3.52m2.83-1.4a3.7 3.7 0 0 0 1.87-1.78c.37-.76.62-2.06.62-3.23 0-.68-.09-.73-1.28-.74-1.6 0-2.47.6-2.74 1.9-.08.42-.2.73-.25.7a2 2 0 0 1-.17-.65c-.1-.73-.6-1.4-1.3-1.72a3.7 3.7 0 0 0-2.07-.15c-.56.08-.56.08-.56.66 0 1.64.48 3.4 1.13 4.1.37.4 1.14.87 1.72 1.06.7.23 2.41.14 3.03-.14zm-2.48-10.13c-2.24-.23-3.99-1.7-4.02-3.36-.04-1.5 1.05-2.26 3.7-2.58 2.2-.26 4.37.26 5.26 1.28 1.03 1.17.4 2.94-1.45 4q-1.49.87-3.5.66zm-2.55-3.5q-.01-.6.71-.96c.58-.3 2.27-.73 2.9-.75.45-.01.45-.01-.03-.13-1.02-.25-3.25.16-3.78.7-.32.3-.36.6-.14 1.07.17.38.34.4.34.06zm10.43 2.43q0-.12.12-.13.11.01.12.13 0 .1-.12.12a.12.12 0 0 1-.12-.12m-16.1-6.3a4.3 4.3 0 0 1-1.85-1.35c-.25-.35-.25-.35.18-.17.53.22.62.18.72-.36.1-.53.61-1.5.96-1.8.72-.62 1.83-.76 2.52-.3.65.43 1.2 1.66 1.3 2.84.05.95.05.95-.6 1.12a6.3 6.3 0 0 1-3.23.02m2.44-.27c.17-.07.36-.3.43-.48.14-.4.02-.46-.2-.1-.1.14-.4.36-.67.48-.46.2-.48.23-.19.24.18 0 .47-.06.63-.14m-1.2-2.23c.36-.37.11-1.15-.37-1.15-.2 0-.66.43-.66.64 0 .27.37.7.6.7a.7.7 0 0 0 .43-.2zm13.4 2.5c-.78-.26-.83-.4-.6-1.7.18-1.1.63-1.8 1.4-2.24.52-.3.68-.32 1.24-.25 1.02.12 1.75.94 2.1 2.32.11.5.11.5.6.34.26-.1.48-.12.48-.06 0 .23-1.05 1.1-1.67 1.42a5.7 5.7 0 0 1-3.55.18zm1.52-.25c-.04-.07-.15-.12-.25-.12s-.36-.17-.6-.38c-.47-.42-.62-.2-.15.22.34.32 1.17.55 1 .28m-.49-3.27c-.63.2-.54 1.17.17 1.17.88 0 .44-1.36-.17-1.17M9.5 20.72a3 3 0 0 1-1.4-.78c-.2-.27-.2-.27.48-.04.83.28 1.94.24 2.3-.08.13-.12.51-.67.85-1.22s.78-1.2.98-1.46c.46-.58.46-.75 0-1.48-.2-.33-.47-.97-.6-1.43a5 5 0 0 0-.34-.94c-.05-.05-.2.18-.32.52a2 2 0 0 1-.25.57c-.02-.02-.1-.6-.18-1.3-.14-1.24-.14-1.24-1-2.35l-1.39-1.8c-.67-.9-3.03-3.25-3.26-3.25-.04 0-.2-.11-.38-.25-.45-.35-.23-.3.74.2a13.3 13.3 0 0 1 6.56 7.44c.9 2.24 1.3 3.06 1.4 2.9.16-.24.43-.22.45.03.03.42-2.15 3.84-2.74 4.3s-1.18.6-1.9.42m35.3-.04c-.49-.16-.85-.5-1.4-1.3a23 23 0 0 1-2.15-3.77c-.08-.42-.08-.42.26-.02.18.22.37.4.43.4.1 0 .33-.56 1.04-2.5.9-2.46 2.02-4.3 3.43-5.61 1.92-1.81 5.5-3.28 4.8-2.82a32 32 0 0 0-4.9 4.37c-.48.53-.8 1.06-.86 1.1-.04.03-.22.3-.39.6-.3.52-.46 1.17-.64 2.49-.08.6-.08.6-.3.15-.14-.25-.29-.46-.35-.46-.1 0-.27.36-.5 1.16-.08.26-.3.78-.5 1.15-.37.68-.37.68.64 2.4 1.2 2 1.4 2.17 2.68 2.05.42-.04.9-.11 1.06-.16.3-.08.3-.08.02.23-.46.5-1.67.77-2.38.54m-27.23-.98c0-.26.85-1.54 1.28-1.85s.53-.32.87-.2c.4.13 1.1.52 1 .64-.12.15-.58.25-.9.3-.67.09-1.4.54-1.9 1.02-.19.17-.35.14-.35.09m19.78-.46a5 5 0 0 0-2-.83c-.47 0-.48-.2-.05-.46.76-.47.88-.45 1.51.14.48.45 1.25 1.53 1.1 1.53-.03 0-.28-.17-.56-.38m-2.3 13.65q0-.11.12-.12.1 0 .12.12-.02.11-.12.12a.12.12 0 0 1-.12-.12m-14.66-1.2q.01-.1.12-.11.12.01.13.12-.01.11-.13.12a.12.12 0 0 1-.12-.12m.01 1.15q0-.11.12-.12t.12.12q0 .1-.12.12a.12.12 0 0 1-.12-.12" style="fill:#471132"/>
    <text xml:space="preserve" x="60.24" y="45.97" style="font-style:normal;font-variant:normal;font-weight:700;font-stretch:normal;font-size:25.4004px;font-family:&quot;Comic Sans MS&quot;;-inkscape-font-specification:&quot;Comic Sans MS, Bold&quot;;font-variant-ligatures:normal;font-variant-caps:normal;font-variant-numeric:normal;font-variant-east-asian:normal;text-align:start;writing-mode:lr-tb;direction:ltr;text-anchor:start;fill:#fd9900;fill-opacity:1;stroke:#471132;stroke-width:.396881;stroke-dasharray:none;stroke-opacity:1"><tspan x="60.24" y="45.97" style="fill:#fd9900;fill-opacity:1;stroke:#471132;stroke-width:.396881;stroke-dasharray:none;stroke-opacity:1">m8t</tspan></text>
</svg>
